M48
; DRILL file {KiCad (5.1.7)-1} date 01/12/21 16:04:56
; FORMAT={-:-/ absolute / inch / decimal}
; #@! TF.CreationDate,2021-01-12T16:04:56+01:00
; #@! TF.GenerationSoftware,Kicad,Pcbnew,(5.1.7)-1
; #@! TF.FileFunction,Plated,1,2,PTH
FMAT,2
INCH
T1C0.0236
T2C0.0394
T3C0.0472
T4C0.0591
%
G90
G05
T1
X3.6885Y-1.17
X3.6885Y-1.48
X3.6885Y-2.27
X3.6885Y-2.58
X3.7106Y-1.35
X3.7106Y-2.45
X3.8115Y-1.17
X3.8115Y-1.48
X3.8115Y-2.27
X3.8115Y-2.58
X3.9004Y-1.4589
X3.9004Y-2.5589
X3.9226Y-1.2581
X3.9226Y-2.3581
X3.9476Y-1.4589
X3.9476Y-2.5589
X3.9949Y-1.4589
X3.9949Y-2.5589
T2
X4.1781Y-1.875
X4.375Y-1.875
X3.365Y-1.275
X3.365Y-1.375
X3.75Y-1.875
X3.9469Y-1.875
X3.365Y-2.375
X3.365Y-2.475
T3
X3.75Y-2.725
X4.725Y-1.725
X4.725Y-2.025
X3.75Y-1.025
T4
X3.525Y-1.875
X4.6Y-1.875
X4.85Y-1.875
T0
M30
