%TF.GenerationSoftware,KiCad,Pcbnew,(5.1.7)-1*%
%TF.CreationDate,2021-01-12T16:04:50+01:00*%
%TF.ProjectId,TheDrut_2,54686544-7275-4745-9f32-2e6b69636164,rev?*%
%TF.SameCoordinates,Original*%
%TF.FileFunction,Soldermask,Top*%
%TF.FilePolarity,Negative*%
%FSLAX46Y46*%
G04 Gerber Fmt 4.6, Leading zero omitted, Abs format (unit mm)*
G04 Created by KiCad (PCBNEW (5.1.7)-1) date 2021-01-12 16:04:50*
%MOMM*%
%LPD*%
G01*
G04 APERTURE LIST*
%ADD10C,3.100000*%
%ADD11C,3.300000*%
%ADD12C,2.100000*%
%ADD13C,2.500000*%
%ADD14O,1.800000X1.800000*%
%ADD15C,1.300000*%
%ADD16C,1.200000*%
G04 APERTURE END LIST*
G36*
G01*
X94400000Y-63892864D02*
X94400000Y-66155136D01*
G75*
G02*
X94131136Y-66424000I-268864J0D01*
G01*
X93243864Y-66424000D01*
G75*
G02*
X92975000Y-66155136I0J268864D01*
G01*
X92975000Y-63892864D01*
G75*
G02*
X93243864Y-63624000I268864J0D01*
G01*
X94131136Y-63624000D01*
G75*
G02*
X94400000Y-63892864I0J-268864D01*
G01*
G37*
G36*
G01*
X97525000Y-63892864D02*
X97525000Y-66155136D01*
G75*
G02*
X97256136Y-66424000I-268864J0D01*
G01*
X96368864Y-66424000D01*
G75*
G02*
X96100000Y-66155136I0J268864D01*
G01*
X96100000Y-63892864D01*
G75*
G02*
X96368864Y-63624000I268864J0D01*
G01*
X97256136Y-63624000D01*
G75*
G02*
X97525000Y-63892864I0J-268864D01*
G01*
G37*
G36*
G01*
X97920000Y-58745000D02*
X97920000Y-57645000D01*
G75*
G02*
X97970000Y-57595000I50000J0D01*
G01*
X102570000Y-57595000D01*
G75*
G02*
X102620000Y-57645000I0J-50000D01*
G01*
X102620000Y-58745000D01*
G75*
G02*
X102570000Y-58795000I-50000J0D01*
G01*
X97970000Y-58795000D01*
G75*
G02*
X97920000Y-58745000I0J50000D01*
G01*
G37*
G36*
G01*
X97920000Y-60445000D02*
X97920000Y-59345000D01*
G75*
G02*
X97970000Y-59295000I50000J0D01*
G01*
X102570000Y-59295000D01*
G75*
G02*
X102620000Y-59345000I0J-50000D01*
G01*
X102620000Y-60445000D01*
G75*
G02*
X102570000Y-60495000I-50000J0D01*
G01*
X97970000Y-60495000D01*
G75*
G02*
X97920000Y-60445000I0J50000D01*
G01*
G37*
G36*
G01*
X97920000Y-62145000D02*
X97920000Y-61045000D01*
G75*
G02*
X97970000Y-60995000I50000J0D01*
G01*
X102570000Y-60995000D01*
G75*
G02*
X102620000Y-61045000I0J-50000D01*
G01*
X102620000Y-62145000D01*
G75*
G02*
X102570000Y-62195000I-50000J0D01*
G01*
X97970000Y-62195000D01*
G75*
G02*
X97920000Y-62145000I0J50000D01*
G01*
G37*
G36*
G01*
X97920000Y-63845000D02*
X97920000Y-62745000D01*
G75*
G02*
X97970000Y-62695000I50000J0D01*
G01*
X102570000Y-62695000D01*
G75*
G02*
X102620000Y-62745000I0J-50000D01*
G01*
X102620000Y-63845000D01*
G75*
G02*
X102570000Y-63895000I-50000J0D01*
G01*
X97970000Y-63895000D01*
G75*
G02*
X97920000Y-63845000I0J50000D01*
G01*
G37*
G36*
G01*
X97920000Y-65545000D02*
X97920000Y-64445000D01*
G75*
G02*
X97970000Y-64395000I50000J0D01*
G01*
X102570000Y-64395000D01*
G75*
G02*
X102620000Y-64445000I0J-50000D01*
G01*
X102620000Y-65545000D01*
G75*
G02*
X102570000Y-65595000I-50000J0D01*
G01*
X97970000Y-65595000D01*
G75*
G02*
X97920000Y-65545000I0J50000D01*
G01*
G37*
G36*
G01*
X105120000Y-69345000D02*
X105120000Y-53845000D01*
G75*
G02*
X105170000Y-53795000I50000J0D01*
G01*
X114070000Y-53795000D01*
G75*
G02*
X114120000Y-53845000I0J-50000D01*
G01*
X114120000Y-69345000D01*
G75*
G02*
X114070000Y-69395000I-50000J0D01*
G01*
X105170000Y-69395000D01*
G75*
G02*
X105120000Y-69345000I0J50000D01*
G01*
G37*
G36*
G01*
X97920000Y-30805000D02*
X97920000Y-29705000D01*
G75*
G02*
X97970000Y-29655000I50000J0D01*
G01*
X102570000Y-29655000D01*
G75*
G02*
X102620000Y-29705000I0J-50000D01*
G01*
X102620000Y-30805000D01*
G75*
G02*
X102570000Y-30855000I-50000J0D01*
G01*
X97970000Y-30855000D01*
G75*
G02*
X97920000Y-30805000I0J50000D01*
G01*
G37*
G36*
G01*
X97920000Y-32505000D02*
X97920000Y-31405000D01*
G75*
G02*
X97970000Y-31355000I50000J0D01*
G01*
X102570000Y-31355000D01*
G75*
G02*
X102620000Y-31405000I0J-50000D01*
G01*
X102620000Y-32505000D01*
G75*
G02*
X102570000Y-32555000I-50000J0D01*
G01*
X97970000Y-32555000D01*
G75*
G02*
X97920000Y-32505000I0J50000D01*
G01*
G37*
G36*
G01*
X97920000Y-34205000D02*
X97920000Y-33105000D01*
G75*
G02*
X97970000Y-33055000I50000J0D01*
G01*
X102570000Y-33055000D01*
G75*
G02*
X102620000Y-33105000I0J-50000D01*
G01*
X102620000Y-34205000D01*
G75*
G02*
X102570000Y-34255000I-50000J0D01*
G01*
X97970000Y-34255000D01*
G75*
G02*
X97920000Y-34205000I0J50000D01*
G01*
G37*
G36*
G01*
X97920000Y-35905000D02*
X97920000Y-34805000D01*
G75*
G02*
X97970000Y-34755000I50000J0D01*
G01*
X102570000Y-34755000D01*
G75*
G02*
X102620000Y-34805000I0J-50000D01*
G01*
X102620000Y-35905000D01*
G75*
G02*
X102570000Y-35955000I-50000J0D01*
G01*
X97970000Y-35955000D01*
G75*
G02*
X97920000Y-35905000I0J50000D01*
G01*
G37*
G36*
G01*
X97920000Y-37605000D02*
X97920000Y-36505000D01*
G75*
G02*
X97970000Y-36455000I50000J0D01*
G01*
X102570000Y-36455000D01*
G75*
G02*
X102620000Y-36505000I0J-50000D01*
G01*
X102620000Y-37605000D01*
G75*
G02*
X102570000Y-37655000I-50000J0D01*
G01*
X97970000Y-37655000D01*
G75*
G02*
X97920000Y-37605000I0J50000D01*
G01*
G37*
G36*
G01*
X105120000Y-41405000D02*
X105120000Y-25905000D01*
G75*
G02*
X105170000Y-25855000I50000J0D01*
G01*
X114070000Y-25855000D01*
G75*
G02*
X114120000Y-25905000I0J-50000D01*
G01*
X114120000Y-41405000D01*
G75*
G02*
X114070000Y-41455000I-50000J0D01*
G01*
X105170000Y-41455000D01*
G75*
G02*
X105120000Y-41405000I0J50000D01*
G01*
G37*
D10*
X123190000Y-47625000D03*
X116840000Y-47625000D03*
X89535000Y-47625000D03*
D11*
X123190000Y-27305000D03*
X123190000Y-67945000D03*
X84455000Y-47625000D03*
G36*
G01*
X105075000Y-48625000D02*
X105075000Y-46625000D01*
G75*
G02*
X105125000Y-46575000I50000J0D01*
G01*
X107125000Y-46575000D01*
G75*
G02*
X107175000Y-46625000I0J-50000D01*
G01*
X107175000Y-48625000D01*
G75*
G02*
X107125000Y-48675000I-50000J0D01*
G01*
X105125000Y-48675000D01*
G75*
G02*
X105075000Y-48625000I0J50000D01*
G01*
G37*
D12*
X111125000Y-47625000D03*
G36*
G01*
X94200000Y-48625000D02*
X94200000Y-46625000D01*
G75*
G02*
X94250000Y-46575000I50000J0D01*
G01*
X96250000Y-46575000D01*
G75*
G02*
X96300000Y-46625000I0J-50000D01*
G01*
X96300000Y-48625000D01*
G75*
G02*
X96250000Y-48675000I-50000J0D01*
G01*
X94250000Y-48675000D01*
G75*
G02*
X94200000Y-48625000I0J50000D01*
G01*
G37*
X100250000Y-47625000D03*
G36*
G01*
X95600000Y-62709168D02*
X95600000Y-61750832D01*
G75*
G02*
X95870832Y-61480000I270832J0D01*
G01*
X96629168Y-61480000D01*
G75*
G02*
X96900000Y-61750832I0J-270832D01*
G01*
X96900000Y-62709168D01*
G75*
G02*
X96629168Y-62980000I-270832J0D01*
G01*
X95870832Y-62980000D01*
G75*
G02*
X95600000Y-62709168I0J270832D01*
G01*
G37*
G36*
G01*
X93600000Y-62709168D02*
X93600000Y-61750832D01*
G75*
G02*
X93870832Y-61480000I270832J0D01*
G01*
X94629168Y-61480000D01*
G75*
G02*
X94900000Y-61750832I0J-270832D01*
G01*
X94900000Y-62709168D01*
G75*
G02*
X94629168Y-62980000I-270832J0D01*
G01*
X93870832Y-62980000D01*
G75*
G02*
X93600000Y-62709168I0J270832D01*
G01*
G37*
G36*
G01*
X95600000Y-34769168D02*
X95600000Y-33810832D01*
G75*
G02*
X95870832Y-33540000I270832J0D01*
G01*
X96629168Y-33540000D01*
G75*
G02*
X96900000Y-33810832I0J-270832D01*
G01*
X96900000Y-34769168D01*
G75*
G02*
X96629168Y-35040000I-270832J0D01*
G01*
X95870832Y-35040000D01*
G75*
G02*
X95600000Y-34769168I0J270832D01*
G01*
G37*
G36*
G01*
X93600000Y-34769168D02*
X93600000Y-33810832D01*
G75*
G02*
X93870832Y-33540000I270832J0D01*
G01*
X94629168Y-33540000D01*
G75*
G02*
X94900000Y-33810832I0J-270832D01*
G01*
X94900000Y-34769168D01*
G75*
G02*
X94629168Y-35040000I-270832J0D01*
G01*
X93870832Y-35040000D01*
G75*
G02*
X93600000Y-34769168I0J270832D01*
G01*
G37*
D13*
X120015000Y-51435000D03*
X95250000Y-69215000D03*
D14*
X85471000Y-62865000D03*
G36*
G01*
X84571000Y-61175000D02*
X84571000Y-59475000D01*
G75*
G02*
X84621000Y-59425000I50000J0D01*
G01*
X86321000Y-59425000D01*
G75*
G02*
X86371000Y-59475000I0J-50000D01*
G01*
X86371000Y-61175000D01*
G75*
G02*
X86321000Y-61225000I-50000J0D01*
G01*
X84621000Y-61225000D01*
G75*
G02*
X84571000Y-61175000I0J50000D01*
G01*
G37*
D13*
X120015000Y-43815000D03*
X95250000Y-26035000D03*
D14*
X85471000Y-34925000D03*
G36*
G01*
X84571000Y-33235000D02*
X84571000Y-31535000D01*
G75*
G02*
X84621000Y-31485000I50000J0D01*
G01*
X86321000Y-31485000D01*
G75*
G02*
X86371000Y-31535000I0J-50000D01*
G01*
X86371000Y-33235000D01*
G75*
G02*
X86321000Y-33285000I-50000J0D01*
G01*
X84621000Y-33285000D01*
G75*
G02*
X84571000Y-33235000I0J50000D01*
G01*
G37*
G36*
G01*
X96100000Y-59297136D02*
X96100000Y-57034864D01*
G75*
G02*
X96368864Y-56766000I268864J0D01*
G01*
X97256136Y-56766000D01*
G75*
G02*
X97525000Y-57034864I0J-268864D01*
G01*
X97525000Y-59297136D01*
G75*
G02*
X97256136Y-59566000I-268864J0D01*
G01*
X96368864Y-59566000D01*
G75*
G02*
X96100000Y-59297136I0J268864D01*
G01*
G37*
G36*
G01*
X92975000Y-59297136D02*
X92975000Y-57034864D01*
G75*
G02*
X93243864Y-56766000I268864J0D01*
G01*
X94131136Y-56766000D01*
G75*
G02*
X94400000Y-57034864I0J-268864D01*
G01*
X94400000Y-59297136D01*
G75*
G02*
X94131136Y-59566000I-268864J0D01*
G01*
X93243864Y-59566000D01*
G75*
G02*
X92975000Y-59297136I0J268864D01*
G01*
G37*
G36*
G01*
X96100000Y-31357136D02*
X96100000Y-29094864D01*
G75*
G02*
X96368864Y-28826000I268864J0D01*
G01*
X97256136Y-28826000D01*
G75*
G02*
X97525000Y-29094864I0J-268864D01*
G01*
X97525000Y-31357136D01*
G75*
G02*
X97256136Y-31626000I-268864J0D01*
G01*
X96368864Y-31626000D01*
G75*
G02*
X96100000Y-31357136I0J268864D01*
G01*
G37*
G36*
G01*
X92975000Y-31357136D02*
X92975000Y-29094864D01*
G75*
G02*
X93243864Y-28826000I268864J0D01*
G01*
X94131136Y-28826000D01*
G75*
G02*
X94400000Y-29094864I0J-268864D01*
G01*
X94400000Y-31357136D01*
G75*
G02*
X94131136Y-31626000I-268864J0D01*
G01*
X93243864Y-31626000D01*
G75*
G02*
X92975000Y-31357136I0J268864D01*
G01*
G37*
G36*
G01*
X94400000Y-35952864D02*
X94400000Y-38215136D01*
G75*
G02*
X94131136Y-38484000I-268864J0D01*
G01*
X93243864Y-38484000D01*
G75*
G02*
X92975000Y-38215136I0J268864D01*
G01*
X92975000Y-35952864D01*
G75*
G02*
X93243864Y-35684000I268864J0D01*
G01*
X94131136Y-35684000D01*
G75*
G02*
X94400000Y-35952864I0J-268864D01*
G01*
G37*
G36*
G01*
X97525000Y-35952864D02*
X97525000Y-38215136D01*
G75*
G02*
X97256136Y-38484000I-268864J0D01*
G01*
X96368864Y-38484000D01*
G75*
G02*
X96100000Y-38215136I0J268864D01*
G01*
X96100000Y-35952864D01*
G75*
G02*
X96368864Y-35684000I268864J0D01*
G01*
X97256136Y-35684000D01*
G75*
G02*
X97525000Y-35952864I0J-268864D01*
G01*
G37*
D15*
X96812500Y-37592000D03*
D16*
X100270000Y-37055000D03*
D15*
X96812500Y-65532000D03*
D16*
X100270000Y-64995000D03*
X99070000Y-37055000D03*
X101470000Y-37055000D03*
X99070000Y-64995000D03*
X101470000Y-64995000D03*
D15*
X93687500Y-29718000D03*
X93687500Y-37592000D03*
X93687500Y-57658000D03*
X93687500Y-65532000D03*
X96812500Y-29718000D03*
X96812500Y-57658000D03*
X94250000Y-34290000D03*
X99635000Y-31955000D03*
X94250000Y-62230000D03*
X99635000Y-59895000D03*
M02*
