%TF.GenerationSoftware,KiCad,Pcbnew,(5.1.7)-1*%
%TF.CreationDate,2021-01-12T16:04:50+01:00*%
%TF.ProjectId,TheDrut_2,54686544-7275-4745-9f32-2e6b69636164,rev?*%
%TF.SameCoordinates,Original*%
%TF.FileFunction,Legend,Top*%
%TF.FilePolarity,Positive*%
%FSLAX46Y46*%
G04 Gerber Fmt 4.6, Leading zero omitted, Abs format (unit mm)*
G04 Created by KiCad (PCBNEW (5.1.7)-1) date 2021-01-12 16:04:50*
%MOMM*%
%LPD*%
G01*
G04 APERTURE LIST*
%ADD10C,0.150000*%
%ADD11C,0.120000*%
G04 APERTURE END LIST*
D10*
X118197380Y-38274047D02*
X118911666Y-38274047D01*
X119054523Y-38321666D01*
X119149761Y-38416904D01*
X119197380Y-38559761D01*
X119197380Y-38655000D01*
X119197380Y-37321666D02*
X119197380Y-37797857D01*
X118197380Y-37797857D01*
X119102142Y-36416904D02*
X119149761Y-36464523D01*
X119197380Y-36607380D01*
X119197380Y-36702619D01*
X119149761Y-36845476D01*
X119054523Y-36940714D01*
X118959285Y-36988333D01*
X118768809Y-37035952D01*
X118625952Y-37035952D01*
X118435476Y-36988333D01*
X118340238Y-36940714D01*
X118245000Y-36845476D01*
X118197380Y-36702619D01*
X118197380Y-36607380D01*
X118245000Y-36464523D01*
X118292619Y-36416904D01*
X118197380Y-35702619D02*
X118911666Y-35702619D01*
X119054523Y-35750238D01*
X119149761Y-35845476D01*
X119197380Y-35988333D01*
X119197380Y-36083571D01*
X119197380Y-34750238D02*
X119197380Y-35226428D01*
X118197380Y-35226428D01*
X119102142Y-33845476D02*
X119149761Y-33893095D01*
X119197380Y-34035952D01*
X119197380Y-34131190D01*
X119149761Y-34274047D01*
X119054523Y-34369285D01*
X118959285Y-34416904D01*
X118768809Y-34464523D01*
X118625952Y-34464523D01*
X118435476Y-34416904D01*
X118340238Y-34369285D01*
X118245000Y-34274047D01*
X118197380Y-34131190D01*
X118197380Y-34035952D01*
X118245000Y-33893095D01*
X118292619Y-33845476D01*
X118197380Y-33131190D02*
X118911666Y-33131190D01*
X119054523Y-33178809D01*
X119149761Y-33274047D01*
X119197380Y-33416904D01*
X119197380Y-33512142D01*
X119197380Y-32178809D02*
X119197380Y-32655000D01*
X118197380Y-32655000D01*
X119102142Y-31274047D02*
X119149761Y-31321666D01*
X119197380Y-31464523D01*
X119197380Y-31559761D01*
X119149761Y-31702619D01*
X119054523Y-31797857D01*
X118959285Y-31845476D01*
X118768809Y-31893095D01*
X118625952Y-31893095D01*
X118435476Y-31845476D01*
X118340238Y-31797857D01*
X118245000Y-31702619D01*
X118197380Y-31559761D01*
X118197380Y-31464523D01*
X118245000Y-31321666D01*
X118292619Y-31274047D01*
X118197380Y-30559761D02*
X118911666Y-30559761D01*
X119054523Y-30607380D01*
X119149761Y-30702619D01*
X119197380Y-30845476D01*
X119197380Y-30940714D01*
X119197380Y-29607380D02*
X119197380Y-30083571D01*
X118197380Y-30083571D01*
X119102142Y-28702619D02*
X119149761Y-28750238D01*
X119197380Y-28893095D01*
X119197380Y-28988333D01*
X119149761Y-29131190D01*
X119054523Y-29226428D01*
X118959285Y-29274047D01*
X118768809Y-29321666D01*
X118625952Y-29321666D01*
X118435476Y-29274047D01*
X118340238Y-29226428D01*
X118245000Y-29131190D01*
X118197380Y-28988333D01*
X118197380Y-28893095D01*
X118245000Y-28750238D01*
X118292619Y-28702619D01*
D11*
X95961252Y-63664000D02*
X94538748Y-63664000D01*
X95961252Y-66384000D02*
X94538748Y-66384000D01*
X103095000Y-65845000D02*
X101995000Y-65845000D01*
X103095000Y-66795000D02*
X103095000Y-65845000D01*
X104595000Y-66795000D02*
X103095000Y-66795000D01*
X103095000Y-57345000D02*
X97970000Y-57345000D01*
X103095000Y-56395000D02*
X103095000Y-57345000D01*
X104595000Y-56395000D02*
X103095000Y-56395000D01*
X103095000Y-37905000D02*
X101995000Y-37905000D01*
X103095000Y-38855000D02*
X103095000Y-37905000D01*
X104595000Y-38855000D02*
X103095000Y-38855000D01*
X103095000Y-29405000D02*
X97970000Y-29405000D01*
X103095000Y-28455000D02*
X103095000Y-29405000D01*
X104595000Y-28455000D02*
X103095000Y-28455000D01*
X124990694Y-47625000D02*
G75*
G03*
X124990694Y-47625000I-1800694J0D01*
G01*
X118640694Y-47625000D02*
G75*
G03*
X118640694Y-47625000I-1800694J0D01*
G01*
X91335694Y-47625000D02*
G75*
G03*
X91335694Y-47625000I-1800694J0D01*
G01*
X113745000Y-47625000D02*
G75*
G03*
X113745000Y-47625000I-5120000J0D01*
G01*
X108625000Y-42545000D02*
X108625000Y-52705000D01*
X108665000Y-42545000D02*
X108665000Y-52705000D01*
X108705000Y-42545000D02*
X108705000Y-52705000D01*
X108745000Y-42546000D02*
X108745000Y-52704000D01*
X108785000Y-42547000D02*
X108785000Y-52703000D01*
X108825000Y-42548000D02*
X108825000Y-52702000D01*
X108865000Y-42550000D02*
X108865000Y-52700000D01*
X108905000Y-42552000D02*
X108905000Y-52698000D01*
X108945000Y-42555000D02*
X108945000Y-52695000D01*
X108985000Y-42557000D02*
X108985000Y-52693000D01*
X109025000Y-42560000D02*
X109025000Y-52690000D01*
X109065000Y-42563000D02*
X109065000Y-52687000D01*
X109105000Y-42567000D02*
X109105000Y-52683000D01*
X109145000Y-42571000D02*
X109145000Y-52679000D01*
X109185000Y-42575000D02*
X109185000Y-52675000D01*
X109225000Y-42580000D02*
X109225000Y-52670000D01*
X109265000Y-42585000D02*
X109265000Y-52665000D01*
X109305000Y-42590000D02*
X109305000Y-52660000D01*
X109346000Y-42595000D02*
X109346000Y-52655000D01*
X109386000Y-42601000D02*
X109386000Y-52649000D01*
X109426000Y-42607000D02*
X109426000Y-52643000D01*
X109466000Y-42614000D02*
X109466000Y-52636000D01*
X109506000Y-42621000D02*
X109506000Y-52629000D01*
X109546000Y-42628000D02*
X109546000Y-52622000D01*
X109586000Y-42635000D02*
X109586000Y-52615000D01*
X109626000Y-42643000D02*
X109626000Y-52607000D01*
X109666000Y-42651000D02*
X109666000Y-52599000D01*
X109706000Y-42660000D02*
X109706000Y-52590000D01*
X109746000Y-42669000D02*
X109746000Y-52581000D01*
X109786000Y-42678000D02*
X109786000Y-52572000D01*
X109826000Y-42687000D02*
X109826000Y-52563000D01*
X109866000Y-42697000D02*
X109866000Y-52553000D01*
X109906000Y-42707000D02*
X109906000Y-46384000D01*
X109906000Y-48866000D02*
X109906000Y-52543000D01*
X109946000Y-42718000D02*
X109946000Y-46384000D01*
X109946000Y-48866000D02*
X109946000Y-52532000D01*
X109986000Y-42728000D02*
X109986000Y-46384000D01*
X109986000Y-48866000D02*
X109986000Y-52522000D01*
X110026000Y-42740000D02*
X110026000Y-46384000D01*
X110026000Y-48866000D02*
X110026000Y-52510000D01*
X110066000Y-42751000D02*
X110066000Y-46384000D01*
X110066000Y-48866000D02*
X110066000Y-52499000D01*
X110106000Y-42763000D02*
X110106000Y-46384000D01*
X110106000Y-48866000D02*
X110106000Y-52487000D01*
X110146000Y-42775000D02*
X110146000Y-46384000D01*
X110146000Y-48866000D02*
X110146000Y-52475000D01*
X110186000Y-42788000D02*
X110186000Y-46384000D01*
X110186000Y-48866000D02*
X110186000Y-52462000D01*
X110226000Y-42801000D02*
X110226000Y-46384000D01*
X110226000Y-48866000D02*
X110226000Y-52449000D01*
X110266000Y-42814000D02*
X110266000Y-46384000D01*
X110266000Y-48866000D02*
X110266000Y-52436000D01*
X110306000Y-42828000D02*
X110306000Y-46384000D01*
X110306000Y-48866000D02*
X110306000Y-52422000D01*
X110346000Y-42842000D02*
X110346000Y-46384000D01*
X110346000Y-48866000D02*
X110346000Y-52408000D01*
X110386000Y-42857000D02*
X110386000Y-46384000D01*
X110386000Y-48866000D02*
X110386000Y-52393000D01*
X110426000Y-42871000D02*
X110426000Y-46384000D01*
X110426000Y-48866000D02*
X110426000Y-52379000D01*
X110466000Y-42887000D02*
X110466000Y-46384000D01*
X110466000Y-48866000D02*
X110466000Y-52363000D01*
X110506000Y-42902000D02*
X110506000Y-46384000D01*
X110506000Y-48866000D02*
X110506000Y-52348000D01*
X110546000Y-42918000D02*
X110546000Y-46384000D01*
X110546000Y-48866000D02*
X110546000Y-52332000D01*
X110586000Y-42935000D02*
X110586000Y-46384000D01*
X110586000Y-48866000D02*
X110586000Y-52315000D01*
X110626000Y-42951000D02*
X110626000Y-46384000D01*
X110626000Y-48866000D02*
X110626000Y-52299000D01*
X110666000Y-42968000D02*
X110666000Y-46384000D01*
X110666000Y-48866000D02*
X110666000Y-52282000D01*
X110706000Y-42986000D02*
X110706000Y-46384000D01*
X110706000Y-48866000D02*
X110706000Y-52264000D01*
X110746000Y-43004000D02*
X110746000Y-46384000D01*
X110746000Y-48866000D02*
X110746000Y-52246000D01*
X110786000Y-43022000D02*
X110786000Y-46384000D01*
X110786000Y-48866000D02*
X110786000Y-52228000D01*
X110826000Y-43041000D02*
X110826000Y-46384000D01*
X110826000Y-48866000D02*
X110826000Y-52209000D01*
X110866000Y-43061000D02*
X110866000Y-46384000D01*
X110866000Y-48866000D02*
X110866000Y-52189000D01*
X110906000Y-43080000D02*
X110906000Y-46384000D01*
X110906000Y-48866000D02*
X110906000Y-52170000D01*
X110946000Y-43100000D02*
X110946000Y-46384000D01*
X110946000Y-48866000D02*
X110946000Y-52150000D01*
X110986000Y-43121000D02*
X110986000Y-46384000D01*
X110986000Y-48866000D02*
X110986000Y-52129000D01*
X111026000Y-43142000D02*
X111026000Y-46384000D01*
X111026000Y-48866000D02*
X111026000Y-52108000D01*
X111066000Y-43163000D02*
X111066000Y-46384000D01*
X111066000Y-48866000D02*
X111066000Y-52087000D01*
X111106000Y-43185000D02*
X111106000Y-46384000D01*
X111106000Y-48866000D02*
X111106000Y-52065000D01*
X111146000Y-43208000D02*
X111146000Y-46384000D01*
X111146000Y-48866000D02*
X111146000Y-52042000D01*
X111186000Y-43230000D02*
X111186000Y-46384000D01*
X111186000Y-48866000D02*
X111186000Y-52020000D01*
X111226000Y-43254000D02*
X111226000Y-46384000D01*
X111226000Y-48866000D02*
X111226000Y-51996000D01*
X111266000Y-43278000D02*
X111266000Y-46384000D01*
X111266000Y-48866000D02*
X111266000Y-51972000D01*
X111306000Y-43302000D02*
X111306000Y-46384000D01*
X111306000Y-48866000D02*
X111306000Y-51948000D01*
X111346000Y-43327000D02*
X111346000Y-46384000D01*
X111346000Y-48866000D02*
X111346000Y-51923000D01*
X111386000Y-43352000D02*
X111386000Y-46384000D01*
X111386000Y-48866000D02*
X111386000Y-51898000D01*
X111426000Y-43378000D02*
X111426000Y-46384000D01*
X111426000Y-48866000D02*
X111426000Y-51872000D01*
X111466000Y-43404000D02*
X111466000Y-46384000D01*
X111466000Y-48866000D02*
X111466000Y-51846000D01*
X111506000Y-43431000D02*
X111506000Y-46384000D01*
X111506000Y-48866000D02*
X111506000Y-51819000D01*
X111546000Y-43459000D02*
X111546000Y-46384000D01*
X111546000Y-48866000D02*
X111546000Y-51791000D01*
X111586000Y-43487000D02*
X111586000Y-46384000D01*
X111586000Y-48866000D02*
X111586000Y-51763000D01*
X111626000Y-43515000D02*
X111626000Y-46384000D01*
X111626000Y-48866000D02*
X111626000Y-51735000D01*
X111666000Y-43545000D02*
X111666000Y-46384000D01*
X111666000Y-48866000D02*
X111666000Y-51705000D01*
X111706000Y-43575000D02*
X111706000Y-46384000D01*
X111706000Y-48866000D02*
X111706000Y-51675000D01*
X111746000Y-43605000D02*
X111746000Y-46384000D01*
X111746000Y-48866000D02*
X111746000Y-51645000D01*
X111786000Y-43636000D02*
X111786000Y-46384000D01*
X111786000Y-48866000D02*
X111786000Y-51614000D01*
X111826000Y-43668000D02*
X111826000Y-46384000D01*
X111826000Y-48866000D02*
X111826000Y-51582000D01*
X111866000Y-43700000D02*
X111866000Y-46384000D01*
X111866000Y-48866000D02*
X111866000Y-51550000D01*
X111906000Y-43733000D02*
X111906000Y-46384000D01*
X111906000Y-48866000D02*
X111906000Y-51517000D01*
X111946000Y-43767000D02*
X111946000Y-46384000D01*
X111946000Y-48866000D02*
X111946000Y-51483000D01*
X111986000Y-43801000D02*
X111986000Y-46384000D01*
X111986000Y-48866000D02*
X111986000Y-51449000D01*
X112026000Y-43836000D02*
X112026000Y-46384000D01*
X112026000Y-48866000D02*
X112026000Y-51414000D01*
X112066000Y-43872000D02*
X112066000Y-46384000D01*
X112066000Y-48866000D02*
X112066000Y-51378000D01*
X112106000Y-43909000D02*
X112106000Y-46384000D01*
X112106000Y-48866000D02*
X112106000Y-51341000D01*
X112146000Y-43946000D02*
X112146000Y-46384000D01*
X112146000Y-48866000D02*
X112146000Y-51304000D01*
X112186000Y-43985000D02*
X112186000Y-46384000D01*
X112186000Y-48866000D02*
X112186000Y-51265000D01*
X112226000Y-44024000D02*
X112226000Y-46384000D01*
X112226000Y-48866000D02*
X112226000Y-51226000D01*
X112266000Y-44064000D02*
X112266000Y-46384000D01*
X112266000Y-48866000D02*
X112266000Y-51186000D01*
X112306000Y-44105000D02*
X112306000Y-46384000D01*
X112306000Y-48866000D02*
X112306000Y-51145000D01*
X112346000Y-44147000D02*
X112346000Y-46384000D01*
X112346000Y-48866000D02*
X112346000Y-51103000D01*
X112386000Y-44189000D02*
X112386000Y-51061000D01*
X112426000Y-44233000D02*
X112426000Y-51017000D01*
X112466000Y-44278000D02*
X112466000Y-50972000D01*
X112506000Y-44324000D02*
X112506000Y-50926000D01*
X112546000Y-44371000D02*
X112546000Y-50879000D01*
X112586000Y-44419000D02*
X112586000Y-50831000D01*
X112626000Y-44469000D02*
X112626000Y-50781000D01*
X112666000Y-44519000D02*
X112666000Y-50731000D01*
X112706000Y-44571000D02*
X112706000Y-50679000D01*
X112746000Y-44625000D02*
X112746000Y-50625000D01*
X112786000Y-44680000D02*
X112786000Y-50570000D01*
X112826000Y-44736000D02*
X112826000Y-50514000D01*
X112866000Y-44795000D02*
X112866000Y-50455000D01*
X112906000Y-44855000D02*
X112906000Y-50395000D01*
X112946000Y-44916000D02*
X112946000Y-50334000D01*
X112986000Y-44980000D02*
X112986000Y-50270000D01*
X113026000Y-45046000D02*
X113026000Y-50204000D01*
X113066000Y-45115000D02*
X113066000Y-50135000D01*
X113106000Y-45186000D02*
X113106000Y-50064000D01*
X113146000Y-45260000D02*
X113146000Y-49990000D01*
X113186000Y-45336000D02*
X113186000Y-49914000D01*
X113226000Y-45416000D02*
X113226000Y-49834000D01*
X113266000Y-45500000D02*
X113266000Y-49750000D01*
X113306000Y-45588000D02*
X113306000Y-49662000D01*
X113346000Y-45681000D02*
X113346000Y-49569000D01*
X113386000Y-45779000D02*
X113386000Y-49471000D01*
X113426000Y-45883000D02*
X113426000Y-49367000D01*
X113466000Y-45995000D02*
X113466000Y-49255000D01*
X113506000Y-46115000D02*
X113506000Y-49135000D01*
X113546000Y-46247000D02*
X113546000Y-49003000D01*
X113586000Y-46395000D02*
X113586000Y-48855000D01*
X113626000Y-46563000D02*
X113626000Y-48687000D01*
X113666000Y-46763000D02*
X113666000Y-48487000D01*
X113706000Y-47026000D02*
X113706000Y-48224000D01*
X103145354Y-44750000D02*
X104145354Y-44750000D01*
X103645354Y-44250000D02*
X103645354Y-45250000D01*
X102870000Y-47625000D02*
G75*
G03*
X102870000Y-47625000I-5120000J0D01*
G01*
X97750000Y-42545000D02*
X97750000Y-52705000D01*
X97790000Y-42545000D02*
X97790000Y-52705000D01*
X97830000Y-42545000D02*
X97830000Y-52705000D01*
X97870000Y-42546000D02*
X97870000Y-52704000D01*
X97910000Y-42547000D02*
X97910000Y-52703000D01*
X97950000Y-42548000D02*
X97950000Y-52702000D01*
X97990000Y-42550000D02*
X97990000Y-52700000D01*
X98030000Y-42552000D02*
X98030000Y-52698000D01*
X98070000Y-42555000D02*
X98070000Y-52695000D01*
X98110000Y-42557000D02*
X98110000Y-52693000D01*
X98150000Y-42560000D02*
X98150000Y-52690000D01*
X98190000Y-42563000D02*
X98190000Y-52687000D01*
X98230000Y-42567000D02*
X98230000Y-52683000D01*
X98270000Y-42571000D02*
X98270000Y-52679000D01*
X98310000Y-42575000D02*
X98310000Y-52675000D01*
X98350000Y-42580000D02*
X98350000Y-52670000D01*
X98390000Y-42585000D02*
X98390000Y-52665000D01*
X98430000Y-42590000D02*
X98430000Y-52660000D01*
X98471000Y-42595000D02*
X98471000Y-52655000D01*
X98511000Y-42601000D02*
X98511000Y-52649000D01*
X98551000Y-42607000D02*
X98551000Y-52643000D01*
X98591000Y-42614000D02*
X98591000Y-52636000D01*
X98631000Y-42621000D02*
X98631000Y-52629000D01*
X98671000Y-42628000D02*
X98671000Y-52622000D01*
X98711000Y-42635000D02*
X98711000Y-52615000D01*
X98751000Y-42643000D02*
X98751000Y-52607000D01*
X98791000Y-42651000D02*
X98791000Y-52599000D01*
X98831000Y-42660000D02*
X98831000Y-52590000D01*
X98871000Y-42669000D02*
X98871000Y-52581000D01*
X98911000Y-42678000D02*
X98911000Y-52572000D01*
X98951000Y-42687000D02*
X98951000Y-52563000D01*
X98991000Y-42697000D02*
X98991000Y-52553000D01*
X99031000Y-42707000D02*
X99031000Y-46384000D01*
X99031000Y-48866000D02*
X99031000Y-52543000D01*
X99071000Y-42718000D02*
X99071000Y-46384000D01*
X99071000Y-48866000D02*
X99071000Y-52532000D01*
X99111000Y-42728000D02*
X99111000Y-46384000D01*
X99111000Y-48866000D02*
X99111000Y-52522000D01*
X99151000Y-42740000D02*
X99151000Y-46384000D01*
X99151000Y-48866000D02*
X99151000Y-52510000D01*
X99191000Y-42751000D02*
X99191000Y-46384000D01*
X99191000Y-48866000D02*
X99191000Y-52499000D01*
X99231000Y-42763000D02*
X99231000Y-46384000D01*
X99231000Y-48866000D02*
X99231000Y-52487000D01*
X99271000Y-42775000D02*
X99271000Y-46384000D01*
X99271000Y-48866000D02*
X99271000Y-52475000D01*
X99311000Y-42788000D02*
X99311000Y-46384000D01*
X99311000Y-48866000D02*
X99311000Y-52462000D01*
X99351000Y-42801000D02*
X99351000Y-46384000D01*
X99351000Y-48866000D02*
X99351000Y-52449000D01*
X99391000Y-42814000D02*
X99391000Y-46384000D01*
X99391000Y-48866000D02*
X99391000Y-52436000D01*
X99431000Y-42828000D02*
X99431000Y-46384000D01*
X99431000Y-48866000D02*
X99431000Y-52422000D01*
X99471000Y-42842000D02*
X99471000Y-46384000D01*
X99471000Y-48866000D02*
X99471000Y-52408000D01*
X99511000Y-42857000D02*
X99511000Y-46384000D01*
X99511000Y-48866000D02*
X99511000Y-52393000D01*
X99551000Y-42871000D02*
X99551000Y-46384000D01*
X99551000Y-48866000D02*
X99551000Y-52379000D01*
X99591000Y-42887000D02*
X99591000Y-46384000D01*
X99591000Y-48866000D02*
X99591000Y-52363000D01*
X99631000Y-42902000D02*
X99631000Y-46384000D01*
X99631000Y-48866000D02*
X99631000Y-52348000D01*
X99671000Y-42918000D02*
X99671000Y-46384000D01*
X99671000Y-48866000D02*
X99671000Y-52332000D01*
X99711000Y-42935000D02*
X99711000Y-46384000D01*
X99711000Y-48866000D02*
X99711000Y-52315000D01*
X99751000Y-42951000D02*
X99751000Y-46384000D01*
X99751000Y-48866000D02*
X99751000Y-52299000D01*
X99791000Y-42968000D02*
X99791000Y-46384000D01*
X99791000Y-48866000D02*
X99791000Y-52282000D01*
X99831000Y-42986000D02*
X99831000Y-46384000D01*
X99831000Y-48866000D02*
X99831000Y-52264000D01*
X99871000Y-43004000D02*
X99871000Y-46384000D01*
X99871000Y-48866000D02*
X99871000Y-52246000D01*
X99911000Y-43022000D02*
X99911000Y-46384000D01*
X99911000Y-48866000D02*
X99911000Y-52228000D01*
X99951000Y-43041000D02*
X99951000Y-46384000D01*
X99951000Y-48866000D02*
X99951000Y-52209000D01*
X99991000Y-43061000D02*
X99991000Y-46384000D01*
X99991000Y-48866000D02*
X99991000Y-52189000D01*
X100031000Y-43080000D02*
X100031000Y-46384000D01*
X100031000Y-48866000D02*
X100031000Y-52170000D01*
X100071000Y-43100000D02*
X100071000Y-46384000D01*
X100071000Y-48866000D02*
X100071000Y-52150000D01*
X100111000Y-43121000D02*
X100111000Y-46384000D01*
X100111000Y-48866000D02*
X100111000Y-52129000D01*
X100151000Y-43142000D02*
X100151000Y-46384000D01*
X100151000Y-48866000D02*
X100151000Y-52108000D01*
X100191000Y-43163000D02*
X100191000Y-46384000D01*
X100191000Y-48866000D02*
X100191000Y-52087000D01*
X100231000Y-43185000D02*
X100231000Y-46384000D01*
X100231000Y-48866000D02*
X100231000Y-52065000D01*
X100271000Y-43208000D02*
X100271000Y-46384000D01*
X100271000Y-48866000D02*
X100271000Y-52042000D01*
X100311000Y-43230000D02*
X100311000Y-46384000D01*
X100311000Y-48866000D02*
X100311000Y-52020000D01*
X100351000Y-43254000D02*
X100351000Y-46384000D01*
X100351000Y-48866000D02*
X100351000Y-51996000D01*
X100391000Y-43278000D02*
X100391000Y-46384000D01*
X100391000Y-48866000D02*
X100391000Y-51972000D01*
X100431000Y-43302000D02*
X100431000Y-46384000D01*
X100431000Y-48866000D02*
X100431000Y-51948000D01*
X100471000Y-43327000D02*
X100471000Y-46384000D01*
X100471000Y-48866000D02*
X100471000Y-51923000D01*
X100511000Y-43352000D02*
X100511000Y-46384000D01*
X100511000Y-48866000D02*
X100511000Y-51898000D01*
X100551000Y-43378000D02*
X100551000Y-46384000D01*
X100551000Y-48866000D02*
X100551000Y-51872000D01*
X100591000Y-43404000D02*
X100591000Y-46384000D01*
X100591000Y-48866000D02*
X100591000Y-51846000D01*
X100631000Y-43431000D02*
X100631000Y-46384000D01*
X100631000Y-48866000D02*
X100631000Y-51819000D01*
X100671000Y-43459000D02*
X100671000Y-46384000D01*
X100671000Y-48866000D02*
X100671000Y-51791000D01*
X100711000Y-43487000D02*
X100711000Y-46384000D01*
X100711000Y-48866000D02*
X100711000Y-51763000D01*
X100751000Y-43515000D02*
X100751000Y-46384000D01*
X100751000Y-48866000D02*
X100751000Y-51735000D01*
X100791000Y-43545000D02*
X100791000Y-46384000D01*
X100791000Y-48866000D02*
X100791000Y-51705000D01*
X100831000Y-43575000D02*
X100831000Y-46384000D01*
X100831000Y-48866000D02*
X100831000Y-51675000D01*
X100871000Y-43605000D02*
X100871000Y-46384000D01*
X100871000Y-48866000D02*
X100871000Y-51645000D01*
X100911000Y-43636000D02*
X100911000Y-46384000D01*
X100911000Y-48866000D02*
X100911000Y-51614000D01*
X100951000Y-43668000D02*
X100951000Y-46384000D01*
X100951000Y-48866000D02*
X100951000Y-51582000D01*
X100991000Y-43700000D02*
X100991000Y-46384000D01*
X100991000Y-48866000D02*
X100991000Y-51550000D01*
X101031000Y-43733000D02*
X101031000Y-46384000D01*
X101031000Y-48866000D02*
X101031000Y-51517000D01*
X101071000Y-43767000D02*
X101071000Y-46384000D01*
X101071000Y-48866000D02*
X101071000Y-51483000D01*
X101111000Y-43801000D02*
X101111000Y-46384000D01*
X101111000Y-48866000D02*
X101111000Y-51449000D01*
X101151000Y-43836000D02*
X101151000Y-46384000D01*
X101151000Y-48866000D02*
X101151000Y-51414000D01*
X101191000Y-43872000D02*
X101191000Y-46384000D01*
X101191000Y-48866000D02*
X101191000Y-51378000D01*
X101231000Y-43909000D02*
X101231000Y-46384000D01*
X101231000Y-48866000D02*
X101231000Y-51341000D01*
X101271000Y-43946000D02*
X101271000Y-46384000D01*
X101271000Y-48866000D02*
X101271000Y-51304000D01*
X101311000Y-43985000D02*
X101311000Y-46384000D01*
X101311000Y-48866000D02*
X101311000Y-51265000D01*
X101351000Y-44024000D02*
X101351000Y-46384000D01*
X101351000Y-48866000D02*
X101351000Y-51226000D01*
X101391000Y-44064000D02*
X101391000Y-46384000D01*
X101391000Y-48866000D02*
X101391000Y-51186000D01*
X101431000Y-44105000D02*
X101431000Y-46384000D01*
X101431000Y-48866000D02*
X101431000Y-51145000D01*
X101471000Y-44147000D02*
X101471000Y-46384000D01*
X101471000Y-48866000D02*
X101471000Y-51103000D01*
X101511000Y-44189000D02*
X101511000Y-51061000D01*
X101551000Y-44233000D02*
X101551000Y-51017000D01*
X101591000Y-44278000D02*
X101591000Y-50972000D01*
X101631000Y-44324000D02*
X101631000Y-50926000D01*
X101671000Y-44371000D02*
X101671000Y-50879000D01*
X101711000Y-44419000D02*
X101711000Y-50831000D01*
X101751000Y-44469000D02*
X101751000Y-50781000D01*
X101791000Y-44519000D02*
X101791000Y-50731000D01*
X101831000Y-44571000D02*
X101831000Y-50679000D01*
X101871000Y-44625000D02*
X101871000Y-50625000D01*
X101911000Y-44680000D02*
X101911000Y-50570000D01*
X101951000Y-44736000D02*
X101951000Y-50514000D01*
X101991000Y-44795000D02*
X101991000Y-50455000D01*
X102031000Y-44855000D02*
X102031000Y-50395000D01*
X102071000Y-44916000D02*
X102071000Y-50334000D01*
X102111000Y-44980000D02*
X102111000Y-50270000D01*
X102151000Y-45046000D02*
X102151000Y-50204000D01*
X102191000Y-45115000D02*
X102191000Y-50135000D01*
X102231000Y-45186000D02*
X102231000Y-50064000D01*
X102271000Y-45260000D02*
X102271000Y-49990000D01*
X102311000Y-45336000D02*
X102311000Y-49914000D01*
X102351000Y-45416000D02*
X102351000Y-49834000D01*
X102391000Y-45500000D02*
X102391000Y-49750000D01*
X102431000Y-45588000D02*
X102431000Y-49662000D01*
X102471000Y-45681000D02*
X102471000Y-49569000D01*
X102511000Y-45779000D02*
X102511000Y-49471000D01*
X102551000Y-45883000D02*
X102551000Y-49367000D01*
X102591000Y-45995000D02*
X102591000Y-49255000D01*
X102631000Y-46115000D02*
X102631000Y-49135000D01*
X102671000Y-46247000D02*
X102671000Y-49003000D01*
X102711000Y-46395000D02*
X102711000Y-48855000D01*
X102751000Y-46563000D02*
X102751000Y-48687000D01*
X102791000Y-46763000D02*
X102791000Y-48487000D01*
X102831000Y-47026000D02*
X102831000Y-48224000D01*
X92270354Y-44750000D02*
X93270354Y-44750000D01*
X92770354Y-44250000D02*
X92770354Y-45250000D01*
X95022936Y-62965000D02*
X95477064Y-62965000D01*
X95022936Y-61495000D02*
X95477064Y-61495000D01*
X95022936Y-35025000D02*
X95477064Y-35025000D01*
X95022936Y-33555000D02*
X95477064Y-33555000D01*
X121515833Y-51435000D02*
G75*
G03*
X121515833Y-51435000I-1500833J0D01*
G01*
X96750833Y-69215000D02*
G75*
G03*
X96750833Y-69215000I-1500833J0D01*
G01*
X84141000Y-58995000D02*
X85471000Y-58995000D01*
X84141000Y-60325000D02*
X84141000Y-58995000D01*
X84141000Y-61595000D02*
X86801000Y-61595000D01*
X86801000Y-61595000D02*
X86801000Y-64195000D01*
X84141000Y-61595000D02*
X84141000Y-64195000D01*
X84141000Y-64195000D02*
X86801000Y-64195000D01*
X121515833Y-43815000D02*
G75*
G03*
X121515833Y-43815000I-1500833J0D01*
G01*
X96750833Y-26035000D02*
G75*
G03*
X96750833Y-26035000I-1500833J0D01*
G01*
X84141000Y-31055000D02*
X85471000Y-31055000D01*
X84141000Y-32385000D02*
X84141000Y-31055000D01*
X84141000Y-33655000D02*
X86801000Y-33655000D01*
X86801000Y-33655000D02*
X86801000Y-36255000D01*
X84141000Y-33655000D02*
X84141000Y-36255000D01*
X84141000Y-36255000D02*
X86801000Y-36255000D01*
X94538748Y-59526000D02*
X95961252Y-59526000D01*
X94538748Y-56806000D02*
X95961252Y-56806000D01*
X94538748Y-31586000D02*
X95961252Y-31586000D01*
X94538748Y-28866000D02*
X95961252Y-28866000D01*
X95961252Y-35724000D02*
X94538748Y-35724000D01*
X95961252Y-38444000D02*
X94538748Y-38444000D01*
D10*
X91273333Y-65381142D02*
X91225714Y-65428761D01*
X91082857Y-65476380D01*
X90987619Y-65476380D01*
X90844761Y-65428761D01*
X90749523Y-65333523D01*
X90701904Y-65238285D01*
X90654285Y-65047809D01*
X90654285Y-64904952D01*
X90701904Y-64714476D01*
X90749523Y-64619238D01*
X90844761Y-64524000D01*
X90987619Y-64476380D01*
X91082857Y-64476380D01*
X91225714Y-64524000D01*
X91273333Y-64571619D01*
X91844761Y-64904952D02*
X91749523Y-64857333D01*
X91701904Y-64809714D01*
X91654285Y-64714476D01*
X91654285Y-64666857D01*
X91701904Y-64571619D01*
X91749523Y-64524000D01*
X91844761Y-64476380D01*
X92035238Y-64476380D01*
X92130476Y-64524000D01*
X92178095Y-64571619D01*
X92225714Y-64666857D01*
X92225714Y-64714476D01*
X92178095Y-64809714D01*
X92130476Y-64857333D01*
X92035238Y-64904952D01*
X91844761Y-64904952D01*
X91749523Y-64952571D01*
X91701904Y-65000190D01*
X91654285Y-65095428D01*
X91654285Y-65285904D01*
X91701904Y-65381142D01*
X91749523Y-65428761D01*
X91844761Y-65476380D01*
X92035238Y-65476380D01*
X92130476Y-65428761D01*
X92178095Y-65381142D01*
X92225714Y-65285904D01*
X92225714Y-65095428D01*
X92178095Y-65000190D01*
X92130476Y-64952571D01*
X92035238Y-64904952D01*
X99187095Y-55967380D02*
X99187095Y-56776904D01*
X99234714Y-56872142D01*
X99282333Y-56919761D01*
X99377571Y-56967380D01*
X99568047Y-56967380D01*
X99663285Y-56919761D01*
X99710904Y-56872142D01*
X99758523Y-56776904D01*
X99758523Y-55967380D01*
X100663285Y-56300714D02*
X100663285Y-56967380D01*
X100425190Y-55919761D02*
X100187095Y-56634047D01*
X100806142Y-56634047D01*
X99187095Y-28027380D02*
X99187095Y-28836904D01*
X99234714Y-28932142D01*
X99282333Y-28979761D01*
X99377571Y-29027380D01*
X99568047Y-29027380D01*
X99663285Y-28979761D01*
X99710904Y-28932142D01*
X99758523Y-28836904D01*
X99758523Y-28027380D01*
X100187095Y-28122619D02*
X100234714Y-28075000D01*
X100329952Y-28027380D01*
X100568047Y-28027380D01*
X100663285Y-28075000D01*
X100710904Y-28122619D01*
X100758523Y-28217857D01*
X100758523Y-28313095D01*
X100710904Y-28455952D01*
X100139476Y-29027380D01*
X100758523Y-29027380D01*
X122380476Y-45156428D02*
X123142380Y-45156428D01*
X123475714Y-44537380D02*
X123809047Y-45537380D01*
X124142380Y-44537380D01*
X116078095Y-44585000D02*
X115982857Y-44537380D01*
X115840000Y-44537380D01*
X115697142Y-44585000D01*
X115601904Y-44680238D01*
X115554285Y-44775476D01*
X115506666Y-44965952D01*
X115506666Y-45108809D01*
X115554285Y-45299285D01*
X115601904Y-45394523D01*
X115697142Y-45489761D01*
X115840000Y-45537380D01*
X115935238Y-45537380D01*
X116078095Y-45489761D01*
X116125714Y-45442142D01*
X116125714Y-45108809D01*
X115935238Y-45108809D01*
X116554285Y-45537380D02*
X116554285Y-44537380D01*
X117125714Y-45537380D01*
X117125714Y-44537380D01*
X117601904Y-45537380D02*
X117601904Y-44537380D01*
X117840000Y-44537380D01*
X117982857Y-44585000D01*
X118078095Y-44680238D01*
X118125714Y-44775476D01*
X118173333Y-44965952D01*
X118173333Y-45108809D01*
X118125714Y-45299285D01*
X118078095Y-45394523D01*
X117982857Y-45489761D01*
X117840000Y-45537380D01*
X117601904Y-45537380D01*
X88725476Y-45156428D02*
X89487380Y-45156428D01*
X89106428Y-45537380D02*
X89106428Y-44775476D01*
X89820714Y-44537380D02*
X90154047Y-45537380D01*
X90487380Y-44537380D01*
X112863333Y-52427142D02*
X112815714Y-52474761D01*
X112672857Y-52522380D01*
X112577619Y-52522380D01*
X112434761Y-52474761D01*
X112339523Y-52379523D01*
X112291904Y-52284285D01*
X112244285Y-52093809D01*
X112244285Y-51950952D01*
X112291904Y-51760476D01*
X112339523Y-51665238D01*
X112434761Y-51570000D01*
X112577619Y-51522380D01*
X112672857Y-51522380D01*
X112815714Y-51570000D01*
X112863333Y-51617619D01*
X113244285Y-51617619D02*
X113291904Y-51570000D01*
X113387142Y-51522380D01*
X113625238Y-51522380D01*
X113720476Y-51570000D01*
X113768095Y-51617619D01*
X113815714Y-51712857D01*
X113815714Y-51808095D01*
X113768095Y-51950952D01*
X113196666Y-52522380D01*
X113815714Y-52522380D01*
X102068333Y-52427142D02*
X102020714Y-52474761D01*
X101877857Y-52522380D01*
X101782619Y-52522380D01*
X101639761Y-52474761D01*
X101544523Y-52379523D01*
X101496904Y-52284285D01*
X101449285Y-52093809D01*
X101449285Y-51950952D01*
X101496904Y-51760476D01*
X101544523Y-51665238D01*
X101639761Y-51570000D01*
X101782619Y-51522380D01*
X101877857Y-51522380D01*
X102020714Y-51570000D01*
X102068333Y-51617619D01*
X103020714Y-52522380D02*
X102449285Y-52522380D01*
X102735000Y-52522380D02*
X102735000Y-51522380D01*
X102639761Y-51665238D01*
X102544523Y-51760476D01*
X102449285Y-51808095D01*
X95083333Y-61032380D02*
X94750000Y-60556190D01*
X94511904Y-61032380D02*
X94511904Y-60032380D01*
X94892857Y-60032380D01*
X94988095Y-60080000D01*
X95035714Y-60127619D01*
X95083333Y-60222857D01*
X95083333Y-60365714D01*
X95035714Y-60460952D01*
X94988095Y-60508571D01*
X94892857Y-60556190D01*
X94511904Y-60556190D01*
X95940476Y-60032380D02*
X95750000Y-60032380D01*
X95654761Y-60080000D01*
X95607142Y-60127619D01*
X95511904Y-60270476D01*
X95464285Y-60460952D01*
X95464285Y-60841904D01*
X95511904Y-60937142D01*
X95559523Y-60984761D01*
X95654761Y-61032380D01*
X95845238Y-61032380D01*
X95940476Y-60984761D01*
X95988095Y-60937142D01*
X96035714Y-60841904D01*
X96035714Y-60603809D01*
X95988095Y-60508571D01*
X95940476Y-60460952D01*
X95845238Y-60413333D01*
X95654761Y-60413333D01*
X95559523Y-60460952D01*
X95511904Y-60508571D01*
X95464285Y-60603809D01*
X95083333Y-33092380D02*
X94750000Y-32616190D01*
X94511904Y-33092380D02*
X94511904Y-32092380D01*
X94892857Y-32092380D01*
X94988095Y-32140000D01*
X95035714Y-32187619D01*
X95083333Y-32282857D01*
X95083333Y-32425714D01*
X95035714Y-32520952D01*
X94988095Y-32568571D01*
X94892857Y-32616190D01*
X94511904Y-32616190D01*
X95464285Y-32187619D02*
X95511904Y-32140000D01*
X95607142Y-32092380D01*
X95845238Y-32092380D01*
X95940476Y-32140000D01*
X95988095Y-32187619D01*
X96035714Y-32282857D01*
X96035714Y-32378095D01*
X95988095Y-32520952D01*
X95416666Y-33092380D01*
X96035714Y-33092380D01*
X121928095Y-52205000D02*
X121832857Y-52157380D01*
X121690000Y-52157380D01*
X121547142Y-52205000D01*
X121451904Y-52300238D01*
X121404285Y-52395476D01*
X121356666Y-52585952D01*
X121356666Y-52728809D01*
X121404285Y-52919285D01*
X121451904Y-53014523D01*
X121547142Y-53109761D01*
X121690000Y-53157380D01*
X121785238Y-53157380D01*
X121928095Y-53109761D01*
X121975714Y-53062142D01*
X121975714Y-52728809D01*
X121785238Y-52728809D01*
X122404285Y-53157380D02*
X122404285Y-52157380D01*
X122975714Y-53157380D01*
X122975714Y-52157380D01*
X123451904Y-53157380D02*
X123451904Y-52157380D01*
X123690000Y-52157380D01*
X123832857Y-52205000D01*
X123928095Y-52300238D01*
X123975714Y-52395476D01*
X124023333Y-52585952D01*
X124023333Y-52728809D01*
X123975714Y-52919285D01*
X123928095Y-53014523D01*
X123832857Y-53109761D01*
X123690000Y-53157380D01*
X123451904Y-53157380D01*
X125023333Y-53157380D02*
X124690000Y-52681190D01*
X124451904Y-53157380D02*
X124451904Y-52157380D01*
X124832857Y-52157380D01*
X124928095Y-52205000D01*
X124975714Y-52252619D01*
X125023333Y-52347857D01*
X125023333Y-52490714D01*
X124975714Y-52585952D01*
X124928095Y-52633571D01*
X124832857Y-52681190D01*
X124451904Y-52681190D01*
X97560000Y-68667380D02*
X97750476Y-68667380D01*
X97845714Y-68715000D01*
X97940952Y-68810238D01*
X97988571Y-69000714D01*
X97988571Y-69334047D01*
X97940952Y-69524523D01*
X97845714Y-69619761D01*
X97750476Y-69667380D01*
X97560000Y-69667380D01*
X97464761Y-69619761D01*
X97369523Y-69524523D01*
X97321904Y-69334047D01*
X97321904Y-69000714D01*
X97369523Y-68810238D01*
X97464761Y-68715000D01*
X97560000Y-68667380D01*
X98417142Y-68667380D02*
X98417142Y-69476904D01*
X98464761Y-69572142D01*
X98512380Y-69619761D01*
X98607619Y-69667380D01*
X98798095Y-69667380D01*
X98893333Y-69619761D01*
X98940952Y-69572142D01*
X98988571Y-69476904D01*
X98988571Y-68667380D01*
X99321904Y-68667380D02*
X99893333Y-68667380D01*
X99607619Y-69667380D02*
X99607619Y-68667380D01*
X100798095Y-69667380D02*
X100464761Y-69191190D01*
X100226666Y-69667380D02*
X100226666Y-68667380D01*
X100607619Y-68667380D01*
X100702857Y-68715000D01*
X100750476Y-68762619D01*
X100798095Y-68857857D01*
X100798095Y-69000714D01*
X100750476Y-69095952D01*
X100702857Y-69143571D01*
X100607619Y-69191190D01*
X100226666Y-69191190D01*
X88336428Y-63856904D02*
X88336428Y-63095000D01*
X88717380Y-62618809D02*
X87717380Y-62618809D01*
X88717380Y-62142619D02*
X87717380Y-62142619D01*
X88717380Y-61571190D01*
X87717380Y-61571190D01*
X88717380Y-60523571D02*
X88241190Y-60856904D01*
X88717380Y-61095000D02*
X87717380Y-61095000D01*
X87717380Y-60714047D01*
X87765000Y-60618809D01*
X87812619Y-60571190D01*
X87907857Y-60523571D01*
X88050714Y-60523571D01*
X88145952Y-60571190D01*
X88193571Y-60618809D01*
X88241190Y-60714047D01*
X88241190Y-61095000D01*
X88336428Y-60095000D02*
X88336428Y-59333095D01*
X88717380Y-59714047D02*
X87955476Y-59714047D01*
X122023333Y-42045000D02*
X121928095Y-41997380D01*
X121785238Y-41997380D01*
X121642380Y-42045000D01*
X121547142Y-42140238D01*
X121499523Y-42235476D01*
X121451904Y-42425952D01*
X121451904Y-42568809D01*
X121499523Y-42759285D01*
X121547142Y-42854523D01*
X121642380Y-42949761D01*
X121785238Y-42997380D01*
X121880476Y-42997380D01*
X122023333Y-42949761D01*
X122070952Y-42902142D01*
X122070952Y-42568809D01*
X121880476Y-42568809D01*
X122499523Y-42997380D02*
X122499523Y-41997380D01*
X123070952Y-42997380D01*
X123070952Y-41997380D01*
X123547142Y-42997380D02*
X123547142Y-41997380D01*
X123785238Y-41997380D01*
X123928095Y-42045000D01*
X124023333Y-42140238D01*
X124070952Y-42235476D01*
X124118571Y-42425952D01*
X124118571Y-42568809D01*
X124070952Y-42759285D01*
X124023333Y-42854523D01*
X123928095Y-42949761D01*
X123785238Y-42997380D01*
X123547142Y-42997380D01*
X125023333Y-42997380D02*
X124547142Y-42997380D01*
X124547142Y-41997380D01*
X97655238Y-25487380D02*
X97845714Y-25487380D01*
X97940952Y-25535000D01*
X98036190Y-25630238D01*
X98083809Y-25820714D01*
X98083809Y-26154047D01*
X98036190Y-26344523D01*
X97940952Y-26439761D01*
X97845714Y-26487380D01*
X97655238Y-26487380D01*
X97560000Y-26439761D01*
X97464761Y-26344523D01*
X97417142Y-26154047D01*
X97417142Y-25820714D01*
X97464761Y-25630238D01*
X97560000Y-25535000D01*
X97655238Y-25487380D01*
X98512380Y-25487380D02*
X98512380Y-26296904D01*
X98560000Y-26392142D01*
X98607619Y-26439761D01*
X98702857Y-26487380D01*
X98893333Y-26487380D01*
X98988571Y-26439761D01*
X99036190Y-26392142D01*
X99083809Y-26296904D01*
X99083809Y-25487380D01*
X99417142Y-25487380D02*
X99988571Y-25487380D01*
X99702857Y-26487380D02*
X99702857Y-25487380D01*
X100798095Y-26487380D02*
X100321904Y-26487380D01*
X100321904Y-25487380D01*
X88336428Y-35821666D02*
X88336428Y-35059761D01*
X88717380Y-34583571D02*
X87717380Y-34583571D01*
X88717380Y-34107380D02*
X87717380Y-34107380D01*
X88717380Y-33535952D01*
X87717380Y-33535952D01*
X88717380Y-32583571D02*
X88717380Y-33059761D01*
X87717380Y-33059761D01*
X88336428Y-32250238D02*
X88336428Y-31488333D01*
X88717380Y-31869285D02*
X87955476Y-31869285D01*
X90162142Y-58523142D02*
X90114523Y-58570761D01*
X89971666Y-58618380D01*
X89876428Y-58618380D01*
X89733571Y-58570761D01*
X89638333Y-58475523D01*
X89590714Y-58380285D01*
X89543095Y-58189809D01*
X89543095Y-58046952D01*
X89590714Y-57856476D01*
X89638333Y-57761238D01*
X89733571Y-57666000D01*
X89876428Y-57618380D01*
X89971666Y-57618380D01*
X90114523Y-57666000D01*
X90162142Y-57713619D01*
X91114523Y-58618380D02*
X90543095Y-58618380D01*
X90828809Y-58618380D02*
X90828809Y-57618380D01*
X90733571Y-57761238D01*
X90638333Y-57856476D01*
X90543095Y-57904095D01*
X91733571Y-57618380D02*
X91828809Y-57618380D01*
X91924047Y-57666000D01*
X91971666Y-57713619D01*
X92019285Y-57808857D01*
X92066904Y-57999333D01*
X92066904Y-58237428D01*
X92019285Y-58427904D01*
X91971666Y-58523142D01*
X91924047Y-58570761D01*
X91828809Y-58618380D01*
X91733571Y-58618380D01*
X91638333Y-58570761D01*
X91590714Y-58523142D01*
X91543095Y-58427904D01*
X91495476Y-58237428D01*
X91495476Y-57999333D01*
X91543095Y-57808857D01*
X91590714Y-57713619D01*
X91638333Y-57666000D01*
X91733571Y-57618380D01*
X91273333Y-30583142D02*
X91225714Y-30630761D01*
X91082857Y-30678380D01*
X90987619Y-30678380D01*
X90844761Y-30630761D01*
X90749523Y-30535523D01*
X90701904Y-30440285D01*
X90654285Y-30249809D01*
X90654285Y-30106952D01*
X90701904Y-29916476D01*
X90749523Y-29821238D01*
X90844761Y-29726000D01*
X90987619Y-29678380D01*
X91082857Y-29678380D01*
X91225714Y-29726000D01*
X91273333Y-29773619D01*
X92130476Y-29678380D02*
X91940000Y-29678380D01*
X91844761Y-29726000D01*
X91797142Y-29773619D01*
X91701904Y-29916476D01*
X91654285Y-30106952D01*
X91654285Y-30487904D01*
X91701904Y-30583142D01*
X91749523Y-30630761D01*
X91844761Y-30678380D01*
X92035238Y-30678380D01*
X92130476Y-30630761D01*
X92178095Y-30583142D01*
X92225714Y-30487904D01*
X92225714Y-30249809D01*
X92178095Y-30154571D01*
X92130476Y-30106952D01*
X92035238Y-30059333D01*
X91844761Y-30059333D01*
X91749523Y-30106952D01*
X91701904Y-30154571D01*
X91654285Y-30249809D01*
X91273333Y-37441142D02*
X91225714Y-37488761D01*
X91082857Y-37536380D01*
X90987619Y-37536380D01*
X90844761Y-37488761D01*
X90749523Y-37393523D01*
X90701904Y-37298285D01*
X90654285Y-37107809D01*
X90654285Y-36964952D01*
X90701904Y-36774476D01*
X90749523Y-36679238D01*
X90844761Y-36584000D01*
X90987619Y-36536380D01*
X91082857Y-36536380D01*
X91225714Y-36584000D01*
X91273333Y-36631619D01*
X92130476Y-36869714D02*
X92130476Y-37536380D01*
X91892380Y-36488761D02*
X91654285Y-37203047D01*
X92273333Y-37203047D01*
M02*
