%TF.GenerationSoftware,KiCad,Pcbnew,(5.1.7)-1*%
%TF.CreationDate,2021-01-12T16:04:50+01:00*%
%TF.ProjectId,TheDrut_2,54686544-7275-4745-9f32-2e6b69636164,rev?*%
%TF.SameCoordinates,Original*%
%TF.FileFunction,Legend,Bot*%
%TF.FilePolarity,Positive*%
%FSLAX46Y46*%
G04 Gerber Fmt 4.6, Leading zero omitted, Abs format (unit mm)*
G04 Created by KiCad (PCBNEW (5.1.7)-1) date 2021-01-12 16:04:50*
%MOMM*%
%LPD*%
G01*
G04 APERTURE LIST*
%ADD10C,0.120000*%
%ADD11C,0.150000*%
G04 APERTURE END LIST*
D10*
X95250000Y-64155000D02*
X91800000Y-64155000D01*
X95250000Y-64155000D02*
X97200000Y-64155000D01*
X95250000Y-59035000D02*
X93300000Y-59035000D01*
X95250000Y-59035000D02*
X97200000Y-59035000D01*
X95250000Y-36215000D02*
X91800000Y-36215000D01*
X95250000Y-36215000D02*
X97200000Y-36215000D01*
X95250000Y-31095000D02*
X93300000Y-31095000D01*
X95250000Y-31095000D02*
X97200000Y-31095000D01*
X89689000Y-63727064D02*
X89689000Y-63272936D01*
X91159000Y-63727064D02*
X91159000Y-63272936D01*
X87657000Y-63727064D02*
X87657000Y-63272936D01*
X89127000Y-63727064D02*
X89127000Y-63272936D01*
X89635064Y-61314000D02*
X89180936Y-61314000D01*
X89635064Y-59844000D02*
X89180936Y-59844000D01*
X89689000Y-35787064D02*
X89689000Y-35332936D01*
X91159000Y-35787064D02*
X91159000Y-35332936D01*
X87657000Y-35787064D02*
X87657000Y-35332936D01*
X89127000Y-35787064D02*
X89127000Y-35332936D01*
X89635064Y-33374000D02*
X89180936Y-33374000D01*
X89635064Y-31904000D02*
X89180936Y-31904000D01*
X94538748Y-56748000D02*
X95961252Y-56748000D01*
X94538748Y-58568000D02*
X95961252Y-58568000D01*
X94538748Y-64622000D02*
X95961252Y-64622000D01*
X94538748Y-66442000D02*
X95961252Y-66442000D01*
X94538748Y-28808000D02*
X95961252Y-28808000D01*
X94538748Y-30628000D02*
X95961252Y-30628000D01*
X94538748Y-36682000D02*
X95961252Y-36682000D01*
X94538748Y-38502000D02*
X95961252Y-38502000D01*
D11*
X91654380Y-64516095D02*
X92463904Y-64516095D01*
X92559142Y-64563714D01*
X92606761Y-64611333D01*
X92654380Y-64706571D01*
X92654380Y-64897047D01*
X92606761Y-64992285D01*
X92559142Y-65039904D01*
X92463904Y-65087523D01*
X91654380Y-65087523D01*
X91654380Y-65468476D02*
X91654380Y-66087523D01*
X92035333Y-65754190D01*
X92035333Y-65897047D01*
X92082952Y-65992285D01*
X92130571Y-66039904D01*
X92225809Y-66087523D01*
X92463904Y-66087523D01*
X92559142Y-66039904D01*
X92606761Y-65992285D01*
X92654380Y-65897047D01*
X92654380Y-65611333D01*
X92606761Y-65516095D01*
X92559142Y-65468476D01*
X91654380Y-36576095D02*
X92463904Y-36576095D01*
X92559142Y-36623714D01*
X92606761Y-36671333D01*
X92654380Y-36766571D01*
X92654380Y-36957047D01*
X92606761Y-37052285D01*
X92559142Y-37099904D01*
X92463904Y-37147523D01*
X91654380Y-37147523D01*
X92654380Y-38147523D02*
X92654380Y-37576095D01*
X92654380Y-37861809D02*
X91654380Y-37861809D01*
X91797238Y-37766571D01*
X91892476Y-37671333D01*
X91940095Y-37576095D01*
X90876380Y-66127333D02*
X90400190Y-65794000D01*
X90876380Y-65555904D02*
X89876380Y-65555904D01*
X89876380Y-65936857D01*
X89924000Y-66032095D01*
X89971619Y-66079714D01*
X90066857Y-66127333D01*
X90209714Y-66127333D01*
X90304952Y-66079714D01*
X90352571Y-66032095D01*
X90400190Y-65936857D01*
X90400190Y-65555904D01*
X90304952Y-66698761D02*
X90257333Y-66603523D01*
X90209714Y-66555904D01*
X90114476Y-66508285D01*
X90066857Y-66508285D01*
X89971619Y-66555904D01*
X89924000Y-66603523D01*
X89876380Y-66698761D01*
X89876380Y-66889238D01*
X89924000Y-66984476D01*
X89971619Y-67032095D01*
X90066857Y-67079714D01*
X90114476Y-67079714D01*
X90209714Y-67032095D01*
X90257333Y-66984476D01*
X90304952Y-66889238D01*
X90304952Y-66698761D01*
X90352571Y-66603523D01*
X90400190Y-66555904D01*
X90495428Y-66508285D01*
X90685904Y-66508285D01*
X90781142Y-66555904D01*
X90828761Y-66603523D01*
X90876380Y-66698761D01*
X90876380Y-66889238D01*
X90828761Y-66984476D01*
X90781142Y-67032095D01*
X90685904Y-67079714D01*
X90495428Y-67079714D01*
X90400190Y-67032095D01*
X90352571Y-66984476D01*
X90304952Y-66889238D01*
X88844380Y-66127333D02*
X88368190Y-65794000D01*
X88844380Y-65555904D02*
X87844380Y-65555904D01*
X87844380Y-65936857D01*
X87892000Y-66032095D01*
X87939619Y-66079714D01*
X88034857Y-66127333D01*
X88177714Y-66127333D01*
X88272952Y-66079714D01*
X88320571Y-66032095D01*
X88368190Y-65936857D01*
X88368190Y-65555904D01*
X87844380Y-66460666D02*
X87844380Y-67127333D01*
X88844380Y-66698761D01*
X89574666Y-59380380D02*
X89908000Y-58904190D01*
X90146095Y-59380380D02*
X90146095Y-58380380D01*
X89765142Y-58380380D01*
X89669904Y-58428000D01*
X89622285Y-58475619D01*
X89574666Y-58570857D01*
X89574666Y-58713714D01*
X89622285Y-58808952D01*
X89669904Y-58856571D01*
X89765142Y-58904190D01*
X90146095Y-58904190D01*
X88669904Y-58380380D02*
X89146095Y-58380380D01*
X89193714Y-58856571D01*
X89146095Y-58808952D01*
X89050857Y-58761333D01*
X88812761Y-58761333D01*
X88717523Y-58808952D01*
X88669904Y-58856571D01*
X88622285Y-58951809D01*
X88622285Y-59189904D01*
X88669904Y-59285142D01*
X88717523Y-59332761D01*
X88812761Y-59380380D01*
X89050857Y-59380380D01*
X89146095Y-59332761D01*
X89193714Y-59285142D01*
X90876380Y-38187333D02*
X90400190Y-37854000D01*
X90876380Y-37615904D02*
X89876380Y-37615904D01*
X89876380Y-37996857D01*
X89924000Y-38092095D01*
X89971619Y-38139714D01*
X90066857Y-38187333D01*
X90209714Y-38187333D01*
X90304952Y-38139714D01*
X90352571Y-38092095D01*
X90400190Y-37996857D01*
X90400190Y-37615904D01*
X90209714Y-39044476D02*
X90876380Y-39044476D01*
X89828761Y-38806380D02*
X90543047Y-38568285D01*
X90543047Y-39187333D01*
X88844380Y-38187333D02*
X88368190Y-37854000D01*
X88844380Y-37615904D02*
X87844380Y-37615904D01*
X87844380Y-37996857D01*
X87892000Y-38092095D01*
X87939619Y-38139714D01*
X88034857Y-38187333D01*
X88177714Y-38187333D01*
X88272952Y-38139714D01*
X88320571Y-38092095D01*
X88368190Y-37996857D01*
X88368190Y-37615904D01*
X87844380Y-38520666D02*
X87844380Y-39139714D01*
X88225333Y-38806380D01*
X88225333Y-38949238D01*
X88272952Y-39044476D01*
X88320571Y-39092095D01*
X88415809Y-39139714D01*
X88653904Y-39139714D01*
X88749142Y-39092095D01*
X88796761Y-39044476D01*
X88844380Y-38949238D01*
X88844380Y-38663523D01*
X88796761Y-38568285D01*
X88749142Y-38520666D01*
X89574666Y-31440380D02*
X89908000Y-30964190D01*
X90146095Y-31440380D02*
X90146095Y-30440380D01*
X89765142Y-30440380D01*
X89669904Y-30488000D01*
X89622285Y-30535619D01*
X89574666Y-30630857D01*
X89574666Y-30773714D01*
X89622285Y-30868952D01*
X89669904Y-30916571D01*
X89765142Y-30964190D01*
X90146095Y-30964190D01*
X88622285Y-31440380D02*
X89193714Y-31440380D01*
X88908000Y-31440380D02*
X88908000Y-30440380D01*
X89003238Y-30583238D01*
X89098476Y-30678476D01*
X89193714Y-30726095D01*
X95416666Y-56364142D02*
X95464285Y-56411761D01*
X95607142Y-56459380D01*
X95702380Y-56459380D01*
X95845238Y-56411761D01*
X95940476Y-56316523D01*
X95988095Y-56221285D01*
X96035714Y-56030809D01*
X96035714Y-55887952D01*
X95988095Y-55697476D01*
X95940476Y-55602238D01*
X95845238Y-55507000D01*
X95702380Y-55459380D01*
X95607142Y-55459380D01*
X95464285Y-55507000D01*
X95416666Y-55554619D01*
X94940476Y-56459380D02*
X94750000Y-56459380D01*
X94654761Y-56411761D01*
X94607142Y-56364142D01*
X94511904Y-56221285D01*
X94464285Y-56030809D01*
X94464285Y-55649857D01*
X94511904Y-55554619D01*
X94559523Y-55507000D01*
X94654761Y-55459380D01*
X94845238Y-55459380D01*
X94940476Y-55507000D01*
X94988095Y-55554619D01*
X95035714Y-55649857D01*
X95035714Y-55887952D01*
X94988095Y-55983190D01*
X94940476Y-56030809D01*
X94845238Y-56078428D01*
X94654761Y-56078428D01*
X94559523Y-56030809D01*
X94511904Y-55983190D01*
X94464285Y-55887952D01*
X95416666Y-67667142D02*
X95464285Y-67714761D01*
X95607142Y-67762380D01*
X95702380Y-67762380D01*
X95845238Y-67714761D01*
X95940476Y-67619523D01*
X95988095Y-67524285D01*
X96035714Y-67333809D01*
X96035714Y-67190952D01*
X95988095Y-67000476D01*
X95940476Y-66905238D01*
X95845238Y-66810000D01*
X95702380Y-66762380D01*
X95607142Y-66762380D01*
X95464285Y-66810000D01*
X95416666Y-66857619D01*
X95083333Y-66762380D02*
X94416666Y-66762380D01*
X94845238Y-67762380D01*
X95416666Y-28424142D02*
X95464285Y-28471761D01*
X95607142Y-28519380D01*
X95702380Y-28519380D01*
X95845238Y-28471761D01*
X95940476Y-28376523D01*
X95988095Y-28281285D01*
X96035714Y-28090809D01*
X96035714Y-27947952D01*
X95988095Y-27757476D01*
X95940476Y-27662238D01*
X95845238Y-27567000D01*
X95702380Y-27519380D01*
X95607142Y-27519380D01*
X95464285Y-27567000D01*
X95416666Y-27614619D01*
X94511904Y-27519380D02*
X94988095Y-27519380D01*
X95035714Y-27995571D01*
X94988095Y-27947952D01*
X94892857Y-27900333D01*
X94654761Y-27900333D01*
X94559523Y-27947952D01*
X94511904Y-27995571D01*
X94464285Y-28090809D01*
X94464285Y-28328904D01*
X94511904Y-28424142D01*
X94559523Y-28471761D01*
X94654761Y-28519380D01*
X94892857Y-28519380D01*
X94988095Y-28471761D01*
X95035714Y-28424142D01*
X95416666Y-39727142D02*
X95464285Y-39774761D01*
X95607142Y-39822380D01*
X95702380Y-39822380D01*
X95845238Y-39774761D01*
X95940476Y-39679523D01*
X95988095Y-39584285D01*
X96035714Y-39393809D01*
X96035714Y-39250952D01*
X95988095Y-39060476D01*
X95940476Y-38965238D01*
X95845238Y-38870000D01*
X95702380Y-38822380D01*
X95607142Y-38822380D01*
X95464285Y-38870000D01*
X95416666Y-38917619D01*
X95083333Y-38822380D02*
X94464285Y-38822380D01*
X94797619Y-39203333D01*
X94654761Y-39203333D01*
X94559523Y-39250952D01*
X94511904Y-39298571D01*
X94464285Y-39393809D01*
X94464285Y-39631904D01*
X94511904Y-39727142D01*
X94559523Y-39774761D01*
X94654761Y-39822380D01*
X94940476Y-39822380D01*
X95035714Y-39774761D01*
X95083333Y-39727142D01*
M02*
