%TF.GenerationSoftware,KiCad,Pcbnew,(5.1.7)-1*%
%TF.CreationDate,2021-01-12T16:04:50+01:00*%
%TF.ProjectId,TheDrut_2,54686544-7275-4745-9f32-2e6b69636164,rev?*%
%TF.SameCoordinates,Original*%
%TF.FileFunction,Soldermask,Bot*%
%TF.FilePolarity,Negative*%
%FSLAX46Y46*%
G04 Gerber Fmt 4.6, Leading zero omitted, Abs format (unit mm)*
G04 Created by KiCad (PCBNEW (5.1.7)-1) date 2021-01-12 16:04:50*
%MOMM*%
%LPD*%
G01*
G04 APERTURE LIST*
%ADD10C,3.100000*%
%ADD11C,3.300000*%
%ADD12C,2.100000*%
%ADD13C,2.500000*%
%ADD14O,1.800000X1.800000*%
%ADD15C,1.300000*%
%ADD16C,1.200000*%
%ADD17C,0.100000*%
G04 APERTURE END LIST*
D10*
X123190000Y-47625000D03*
X116840000Y-47625000D03*
X89535000Y-47625000D03*
D11*
X123190000Y-27305000D03*
X123190000Y-67945000D03*
X84455000Y-47625000D03*
G36*
G01*
X105075000Y-48625000D02*
X105075000Y-46625000D01*
G75*
G02*
X105125000Y-46575000I50000J0D01*
G01*
X107125000Y-46575000D01*
G75*
G02*
X107175000Y-46625000I0J-50000D01*
G01*
X107175000Y-48625000D01*
G75*
G02*
X107125000Y-48675000I-50000J0D01*
G01*
X105125000Y-48675000D01*
G75*
G02*
X105075000Y-48625000I0J50000D01*
G01*
G37*
D12*
X111125000Y-47625000D03*
G36*
G01*
X94200000Y-48625000D02*
X94200000Y-46625000D01*
G75*
G02*
X94250000Y-46575000I50000J0D01*
G01*
X96250000Y-46575000D01*
G75*
G02*
X96300000Y-46625000I0J-50000D01*
G01*
X96300000Y-48625000D01*
G75*
G02*
X96250000Y-48675000I-50000J0D01*
G01*
X94250000Y-48675000D01*
G75*
G02*
X94200000Y-48625000I0J50000D01*
G01*
G37*
X100250000Y-47625000D03*
G36*
G01*
X97000000Y-63675000D02*
X97000000Y-63325000D01*
G75*
G02*
X97175000Y-63150000I175000J0D01*
G01*
X98575000Y-63150000D01*
G75*
G02*
X98750000Y-63325000I0J-175000D01*
G01*
X98750000Y-63675000D01*
G75*
G02*
X98575000Y-63850000I-175000J0D01*
G01*
X97175000Y-63850000D01*
G75*
G02*
X97000000Y-63675000I0J175000D01*
G01*
G37*
G36*
G01*
X97000000Y-62405000D02*
X97000000Y-62055000D01*
G75*
G02*
X97175000Y-61880000I175000J0D01*
G01*
X98575000Y-61880000D01*
G75*
G02*
X98750000Y-62055000I0J-175000D01*
G01*
X98750000Y-62405000D01*
G75*
G02*
X98575000Y-62580000I-175000J0D01*
G01*
X97175000Y-62580000D01*
G75*
G02*
X97000000Y-62405000I0J175000D01*
G01*
G37*
G36*
G01*
X97000000Y-61135000D02*
X97000000Y-60785000D01*
G75*
G02*
X97175000Y-60610000I175000J0D01*
G01*
X98575000Y-60610000D01*
G75*
G02*
X98750000Y-60785000I0J-175000D01*
G01*
X98750000Y-61135000D01*
G75*
G02*
X98575000Y-61310000I-175000J0D01*
G01*
X97175000Y-61310000D01*
G75*
G02*
X97000000Y-61135000I0J175000D01*
G01*
G37*
G36*
G01*
X97000000Y-59865000D02*
X97000000Y-59515000D01*
G75*
G02*
X97175000Y-59340000I175000J0D01*
G01*
X98575000Y-59340000D01*
G75*
G02*
X98750000Y-59515000I0J-175000D01*
G01*
X98750000Y-59865000D01*
G75*
G02*
X98575000Y-60040000I-175000J0D01*
G01*
X97175000Y-60040000D01*
G75*
G02*
X97000000Y-59865000I0J175000D01*
G01*
G37*
G36*
G01*
X91750000Y-59865000D02*
X91750000Y-59515000D01*
G75*
G02*
X91925000Y-59340000I175000J0D01*
G01*
X93325000Y-59340000D01*
G75*
G02*
X93500000Y-59515000I0J-175000D01*
G01*
X93500000Y-59865000D01*
G75*
G02*
X93325000Y-60040000I-175000J0D01*
G01*
X91925000Y-60040000D01*
G75*
G02*
X91750000Y-59865000I0J175000D01*
G01*
G37*
G36*
G01*
X91750000Y-61135000D02*
X91750000Y-60785000D01*
G75*
G02*
X91925000Y-60610000I175000J0D01*
G01*
X93325000Y-60610000D01*
G75*
G02*
X93500000Y-60785000I0J-175000D01*
G01*
X93500000Y-61135000D01*
G75*
G02*
X93325000Y-61310000I-175000J0D01*
G01*
X91925000Y-61310000D01*
G75*
G02*
X91750000Y-61135000I0J175000D01*
G01*
G37*
G36*
G01*
X91750000Y-62405000D02*
X91750000Y-62055000D01*
G75*
G02*
X91925000Y-61880000I175000J0D01*
G01*
X93325000Y-61880000D01*
G75*
G02*
X93500000Y-62055000I0J-175000D01*
G01*
X93500000Y-62405000D01*
G75*
G02*
X93325000Y-62580000I-175000J0D01*
G01*
X91925000Y-62580000D01*
G75*
G02*
X91750000Y-62405000I0J175000D01*
G01*
G37*
G36*
G01*
X91750000Y-63675000D02*
X91750000Y-63325000D01*
G75*
G02*
X91925000Y-63150000I175000J0D01*
G01*
X93325000Y-63150000D01*
G75*
G02*
X93500000Y-63325000I0J-175000D01*
G01*
X93500000Y-63675000D01*
G75*
G02*
X93325000Y-63850000I-175000J0D01*
G01*
X91925000Y-63850000D01*
G75*
G02*
X91750000Y-63675000I0J175000D01*
G01*
G37*
G36*
G01*
X97000000Y-35735000D02*
X97000000Y-35385000D01*
G75*
G02*
X97175000Y-35210000I175000J0D01*
G01*
X98575000Y-35210000D01*
G75*
G02*
X98750000Y-35385000I0J-175000D01*
G01*
X98750000Y-35735000D01*
G75*
G02*
X98575000Y-35910000I-175000J0D01*
G01*
X97175000Y-35910000D01*
G75*
G02*
X97000000Y-35735000I0J175000D01*
G01*
G37*
G36*
G01*
X97000000Y-34465000D02*
X97000000Y-34115000D01*
G75*
G02*
X97175000Y-33940000I175000J0D01*
G01*
X98575000Y-33940000D01*
G75*
G02*
X98750000Y-34115000I0J-175000D01*
G01*
X98750000Y-34465000D01*
G75*
G02*
X98575000Y-34640000I-175000J0D01*
G01*
X97175000Y-34640000D01*
G75*
G02*
X97000000Y-34465000I0J175000D01*
G01*
G37*
G36*
G01*
X97000000Y-33195000D02*
X97000000Y-32845000D01*
G75*
G02*
X97175000Y-32670000I175000J0D01*
G01*
X98575000Y-32670000D01*
G75*
G02*
X98750000Y-32845000I0J-175000D01*
G01*
X98750000Y-33195000D01*
G75*
G02*
X98575000Y-33370000I-175000J0D01*
G01*
X97175000Y-33370000D01*
G75*
G02*
X97000000Y-33195000I0J175000D01*
G01*
G37*
G36*
G01*
X97000000Y-31925000D02*
X97000000Y-31575000D01*
G75*
G02*
X97175000Y-31400000I175000J0D01*
G01*
X98575000Y-31400000D01*
G75*
G02*
X98750000Y-31575000I0J-175000D01*
G01*
X98750000Y-31925000D01*
G75*
G02*
X98575000Y-32100000I-175000J0D01*
G01*
X97175000Y-32100000D01*
G75*
G02*
X97000000Y-31925000I0J175000D01*
G01*
G37*
G36*
G01*
X91750000Y-31925000D02*
X91750000Y-31575000D01*
G75*
G02*
X91925000Y-31400000I175000J0D01*
G01*
X93325000Y-31400000D01*
G75*
G02*
X93500000Y-31575000I0J-175000D01*
G01*
X93500000Y-31925000D01*
G75*
G02*
X93325000Y-32100000I-175000J0D01*
G01*
X91925000Y-32100000D01*
G75*
G02*
X91750000Y-31925000I0J175000D01*
G01*
G37*
G36*
G01*
X91750000Y-33195000D02*
X91750000Y-32845000D01*
G75*
G02*
X91925000Y-32670000I175000J0D01*
G01*
X93325000Y-32670000D01*
G75*
G02*
X93500000Y-32845000I0J-175000D01*
G01*
X93500000Y-33195000D01*
G75*
G02*
X93325000Y-33370000I-175000J0D01*
G01*
X91925000Y-33370000D01*
G75*
G02*
X91750000Y-33195000I0J175000D01*
G01*
G37*
G36*
G01*
X91750000Y-34465000D02*
X91750000Y-34115000D01*
G75*
G02*
X91925000Y-33940000I175000J0D01*
G01*
X93325000Y-33940000D01*
G75*
G02*
X93500000Y-34115000I0J-175000D01*
G01*
X93500000Y-34465000D01*
G75*
G02*
X93325000Y-34640000I-175000J0D01*
G01*
X91925000Y-34640000D01*
G75*
G02*
X91750000Y-34465000I0J175000D01*
G01*
G37*
G36*
G01*
X91750000Y-35735000D02*
X91750000Y-35385000D01*
G75*
G02*
X91925000Y-35210000I175000J0D01*
G01*
X93325000Y-35210000D01*
G75*
G02*
X93500000Y-35385000I0J-175000D01*
G01*
X93500000Y-35735000D01*
G75*
G02*
X93325000Y-35910000I-175000J0D01*
G01*
X91925000Y-35910000D01*
G75*
G02*
X91750000Y-35735000I0J175000D01*
G01*
G37*
G36*
G01*
X90903168Y-63150000D02*
X89944832Y-63150000D01*
G75*
G02*
X89674000Y-62879168I0J270832D01*
G01*
X89674000Y-62120832D01*
G75*
G02*
X89944832Y-61850000I270832J0D01*
G01*
X90903168Y-61850000D01*
G75*
G02*
X91174000Y-62120832I0J-270832D01*
G01*
X91174000Y-62879168D01*
G75*
G02*
X90903168Y-63150000I-270832J0D01*
G01*
G37*
G36*
G01*
X90903168Y-65150000D02*
X89944832Y-65150000D01*
G75*
G02*
X89674000Y-64879168I0J270832D01*
G01*
X89674000Y-64120832D01*
G75*
G02*
X89944832Y-63850000I270832J0D01*
G01*
X90903168Y-63850000D01*
G75*
G02*
X91174000Y-64120832I0J-270832D01*
G01*
X91174000Y-64879168D01*
G75*
G02*
X90903168Y-65150000I-270832J0D01*
G01*
G37*
G36*
G01*
X88871168Y-63150000D02*
X87912832Y-63150000D01*
G75*
G02*
X87642000Y-62879168I0J270832D01*
G01*
X87642000Y-62120832D01*
G75*
G02*
X87912832Y-61850000I270832J0D01*
G01*
X88871168Y-61850000D01*
G75*
G02*
X89142000Y-62120832I0J-270832D01*
G01*
X89142000Y-62879168D01*
G75*
G02*
X88871168Y-63150000I-270832J0D01*
G01*
G37*
G36*
G01*
X88871168Y-65150000D02*
X87912832Y-65150000D01*
G75*
G02*
X87642000Y-64879168I0J270832D01*
G01*
X87642000Y-64120832D01*
G75*
G02*
X87912832Y-63850000I270832J0D01*
G01*
X88871168Y-63850000D01*
G75*
G02*
X89142000Y-64120832I0J-270832D01*
G01*
X89142000Y-64879168D01*
G75*
G02*
X88871168Y-65150000I-270832J0D01*
G01*
G37*
G36*
G01*
X89058000Y-60099832D02*
X89058000Y-61058168D01*
G75*
G02*
X88787168Y-61329000I-270832J0D01*
G01*
X88028832Y-61329000D01*
G75*
G02*
X87758000Y-61058168I0J270832D01*
G01*
X87758000Y-60099832D01*
G75*
G02*
X88028832Y-59829000I270832J0D01*
G01*
X88787168Y-59829000D01*
G75*
G02*
X89058000Y-60099832I0J-270832D01*
G01*
G37*
G36*
G01*
X91058000Y-60099832D02*
X91058000Y-61058168D01*
G75*
G02*
X90787168Y-61329000I-270832J0D01*
G01*
X90028832Y-61329000D01*
G75*
G02*
X89758000Y-61058168I0J270832D01*
G01*
X89758000Y-60099832D01*
G75*
G02*
X90028832Y-59829000I270832J0D01*
G01*
X90787168Y-59829000D01*
G75*
G02*
X91058000Y-60099832I0J-270832D01*
G01*
G37*
G36*
G01*
X90903168Y-35210000D02*
X89944832Y-35210000D01*
G75*
G02*
X89674000Y-34939168I0J270832D01*
G01*
X89674000Y-34180832D01*
G75*
G02*
X89944832Y-33910000I270832J0D01*
G01*
X90903168Y-33910000D01*
G75*
G02*
X91174000Y-34180832I0J-270832D01*
G01*
X91174000Y-34939168D01*
G75*
G02*
X90903168Y-35210000I-270832J0D01*
G01*
G37*
G36*
G01*
X90903168Y-37210000D02*
X89944832Y-37210000D01*
G75*
G02*
X89674000Y-36939168I0J270832D01*
G01*
X89674000Y-36180832D01*
G75*
G02*
X89944832Y-35910000I270832J0D01*
G01*
X90903168Y-35910000D01*
G75*
G02*
X91174000Y-36180832I0J-270832D01*
G01*
X91174000Y-36939168D01*
G75*
G02*
X90903168Y-37210000I-270832J0D01*
G01*
G37*
G36*
G01*
X88871168Y-35210000D02*
X87912832Y-35210000D01*
G75*
G02*
X87642000Y-34939168I0J270832D01*
G01*
X87642000Y-34180832D01*
G75*
G02*
X87912832Y-33910000I270832J0D01*
G01*
X88871168Y-33910000D01*
G75*
G02*
X89142000Y-34180832I0J-270832D01*
G01*
X89142000Y-34939168D01*
G75*
G02*
X88871168Y-35210000I-270832J0D01*
G01*
G37*
G36*
G01*
X88871168Y-37210000D02*
X87912832Y-37210000D01*
G75*
G02*
X87642000Y-36939168I0J270832D01*
G01*
X87642000Y-36180832D01*
G75*
G02*
X87912832Y-35910000I270832J0D01*
G01*
X88871168Y-35910000D01*
G75*
G02*
X89142000Y-36180832I0J-270832D01*
G01*
X89142000Y-36939168D01*
G75*
G02*
X88871168Y-37210000I-270832J0D01*
G01*
G37*
G36*
G01*
X89058000Y-32159832D02*
X89058000Y-33118168D01*
G75*
G02*
X88787168Y-33389000I-270832J0D01*
G01*
X88028832Y-33389000D01*
G75*
G02*
X87758000Y-33118168I0J270832D01*
G01*
X87758000Y-32159832D01*
G75*
G02*
X88028832Y-31889000I270832J0D01*
G01*
X88787168Y-31889000D01*
G75*
G02*
X89058000Y-32159832I0J-270832D01*
G01*
G37*
G36*
G01*
X91058000Y-32159832D02*
X91058000Y-33118168D01*
G75*
G02*
X90787168Y-33389000I-270832J0D01*
G01*
X90028832Y-33389000D01*
G75*
G02*
X89758000Y-33118168I0J270832D01*
G01*
X89758000Y-32159832D01*
G75*
G02*
X90028832Y-31889000I270832J0D01*
G01*
X90787168Y-31889000D01*
G75*
G02*
X91058000Y-32159832I0J-270832D01*
G01*
G37*
D13*
X120015000Y-51435000D03*
X95250000Y-69215000D03*
D14*
X85471000Y-62865000D03*
G36*
G01*
X84571000Y-61175000D02*
X84571000Y-59475000D01*
G75*
G02*
X84621000Y-59425000I50000J0D01*
G01*
X86321000Y-59425000D01*
G75*
G02*
X86371000Y-59475000I0J-50000D01*
G01*
X86371000Y-61175000D01*
G75*
G02*
X86321000Y-61225000I-50000J0D01*
G01*
X84621000Y-61225000D01*
G75*
G02*
X84571000Y-61175000I0J50000D01*
G01*
G37*
D13*
X120015000Y-43815000D03*
X95250000Y-26035000D03*
D14*
X85471000Y-34925000D03*
G36*
G01*
X84571000Y-33235000D02*
X84571000Y-31535000D01*
G75*
G02*
X84621000Y-31485000I50000J0D01*
G01*
X86321000Y-31485000D01*
G75*
G02*
X86371000Y-31535000I0J-50000D01*
G01*
X86371000Y-33235000D01*
G75*
G02*
X86321000Y-33285000I-50000J0D01*
G01*
X84621000Y-33285000D01*
G75*
G02*
X84571000Y-33235000I0J50000D01*
G01*
G37*
G36*
G01*
X96100000Y-58339136D02*
X96100000Y-56976864D01*
G75*
G02*
X96368864Y-56708000I268864J0D01*
G01*
X97256136Y-56708000D01*
G75*
G02*
X97525000Y-56976864I0J-268864D01*
G01*
X97525000Y-58339136D01*
G75*
G02*
X97256136Y-58608000I-268864J0D01*
G01*
X96368864Y-58608000D01*
G75*
G02*
X96100000Y-58339136I0J268864D01*
G01*
G37*
G36*
G01*
X92975000Y-58339136D02*
X92975000Y-56976864D01*
G75*
G02*
X93243864Y-56708000I268864J0D01*
G01*
X94131136Y-56708000D01*
G75*
G02*
X94400000Y-56976864I0J-268864D01*
G01*
X94400000Y-58339136D01*
G75*
G02*
X94131136Y-58608000I-268864J0D01*
G01*
X93243864Y-58608000D01*
G75*
G02*
X92975000Y-58339136I0J268864D01*
G01*
G37*
G36*
G01*
X96100000Y-66213136D02*
X96100000Y-64850864D01*
G75*
G02*
X96368864Y-64582000I268864J0D01*
G01*
X97256136Y-64582000D01*
G75*
G02*
X97525000Y-64850864I0J-268864D01*
G01*
X97525000Y-66213136D01*
G75*
G02*
X97256136Y-66482000I-268864J0D01*
G01*
X96368864Y-66482000D01*
G75*
G02*
X96100000Y-66213136I0J268864D01*
G01*
G37*
G36*
G01*
X92975000Y-66213136D02*
X92975000Y-64850864D01*
G75*
G02*
X93243864Y-64582000I268864J0D01*
G01*
X94131136Y-64582000D01*
G75*
G02*
X94400000Y-64850864I0J-268864D01*
G01*
X94400000Y-66213136D01*
G75*
G02*
X94131136Y-66482000I-268864J0D01*
G01*
X93243864Y-66482000D01*
G75*
G02*
X92975000Y-66213136I0J268864D01*
G01*
G37*
G36*
G01*
X96100000Y-30399136D02*
X96100000Y-29036864D01*
G75*
G02*
X96368864Y-28768000I268864J0D01*
G01*
X97256136Y-28768000D01*
G75*
G02*
X97525000Y-29036864I0J-268864D01*
G01*
X97525000Y-30399136D01*
G75*
G02*
X97256136Y-30668000I-268864J0D01*
G01*
X96368864Y-30668000D01*
G75*
G02*
X96100000Y-30399136I0J268864D01*
G01*
G37*
G36*
G01*
X92975000Y-30399136D02*
X92975000Y-29036864D01*
G75*
G02*
X93243864Y-28768000I268864J0D01*
G01*
X94131136Y-28768000D01*
G75*
G02*
X94400000Y-29036864I0J-268864D01*
G01*
X94400000Y-30399136D01*
G75*
G02*
X94131136Y-30668000I-268864J0D01*
G01*
X93243864Y-30668000D01*
G75*
G02*
X92975000Y-30399136I0J268864D01*
G01*
G37*
G36*
G01*
X96100000Y-38273136D02*
X96100000Y-36910864D01*
G75*
G02*
X96368864Y-36642000I268864J0D01*
G01*
X97256136Y-36642000D01*
G75*
G02*
X97525000Y-36910864I0J-268864D01*
G01*
X97525000Y-38273136D01*
G75*
G02*
X97256136Y-38542000I-268864J0D01*
G01*
X96368864Y-38542000D01*
G75*
G02*
X96100000Y-38273136I0J268864D01*
G01*
G37*
G36*
G01*
X92975000Y-38273136D02*
X92975000Y-36910864D01*
G75*
G02*
X93243864Y-36642000I268864J0D01*
G01*
X94131136Y-36642000D01*
G75*
G02*
X94400000Y-36910864I0J-268864D01*
G01*
X94400000Y-38273136D01*
G75*
G02*
X94131136Y-38542000I-268864J0D01*
G01*
X93243864Y-38542000D01*
G75*
G02*
X92975000Y-38273136I0J268864D01*
G01*
G37*
D15*
X96812500Y-37592000D03*
D16*
X100270000Y-37055000D03*
D15*
X96812500Y-65532000D03*
D16*
X100270000Y-64995000D03*
X99070000Y-37055000D03*
X101470000Y-37055000D03*
X99070000Y-64995000D03*
X101470000Y-64995000D03*
D15*
X93687500Y-29718000D03*
X93687500Y-37592000D03*
X93687500Y-57658000D03*
X93687500Y-65532000D03*
X96812500Y-29718000D03*
X96812500Y-57658000D03*
X94250000Y-34290000D03*
X99635000Y-31955000D03*
X94250000Y-62230000D03*
X99635000Y-59895000D03*
D17*
G36*
X100791519Y-64697155D02*
G01*
X100800711Y-64708354D01*
X100815559Y-64720541D01*
X100832500Y-64729596D01*
X100850885Y-64735173D01*
X100869999Y-64737056D01*
X100889113Y-64735174D01*
X100907498Y-64729596D01*
X100924440Y-64720542D01*
X100939288Y-64708355D01*
X100948481Y-64697154D01*
X100950353Y-64696450D01*
X100951899Y-64697719D01*
X100951690Y-64699534D01*
X100942620Y-64713109D01*
X100897760Y-64821411D01*
X100874889Y-64936389D01*
X100874889Y-65053611D01*
X100897760Y-65168589D01*
X100942620Y-65276891D01*
X100951690Y-65290465D01*
X100951821Y-65292461D01*
X100950158Y-65293572D01*
X100948481Y-65292845D01*
X100939289Y-65281646D01*
X100924441Y-65269459D01*
X100907500Y-65260404D01*
X100889115Y-65254827D01*
X100870001Y-65252944D01*
X100850887Y-65254826D01*
X100832502Y-65260404D01*
X100815560Y-65269458D01*
X100800712Y-65281645D01*
X100791519Y-65292846D01*
X100789647Y-65293550D01*
X100788101Y-65292281D01*
X100788310Y-65290466D01*
X100797380Y-65276891D01*
X100842240Y-65168589D01*
X100865111Y-65053611D01*
X100865111Y-64936389D01*
X100842240Y-64821411D01*
X100797380Y-64713109D01*
X100788310Y-64699535D01*
X100788179Y-64697539D01*
X100789842Y-64696428D01*
X100791519Y-64697155D01*
G37*
G36*
X99591519Y-64697155D02*
G01*
X99600711Y-64708354D01*
X99615559Y-64720541D01*
X99632500Y-64729596D01*
X99650885Y-64735173D01*
X99669999Y-64737056D01*
X99689113Y-64735174D01*
X99707498Y-64729596D01*
X99724440Y-64720542D01*
X99739288Y-64708355D01*
X99748481Y-64697154D01*
X99750353Y-64696450D01*
X99751899Y-64697719D01*
X99751690Y-64699534D01*
X99742620Y-64713109D01*
X99697760Y-64821411D01*
X99674889Y-64936389D01*
X99674889Y-65053611D01*
X99697760Y-65168589D01*
X99742620Y-65276891D01*
X99751690Y-65290465D01*
X99751821Y-65292461D01*
X99750158Y-65293572D01*
X99748481Y-65292845D01*
X99739289Y-65281646D01*
X99724441Y-65269459D01*
X99707500Y-65260404D01*
X99689115Y-65254827D01*
X99670001Y-65252944D01*
X99650887Y-65254826D01*
X99632502Y-65260404D01*
X99615560Y-65269458D01*
X99600712Y-65281645D01*
X99591519Y-65292846D01*
X99589647Y-65293550D01*
X99588101Y-65292281D01*
X99588310Y-65290466D01*
X99597380Y-65276891D01*
X99642240Y-65168589D01*
X99665111Y-65053611D01*
X99665111Y-64936389D01*
X99642240Y-64821411D01*
X99597380Y-64713109D01*
X99588310Y-64699535D01*
X99588179Y-64697539D01*
X99589842Y-64696428D01*
X99591519Y-64697155D01*
G37*
G36*
X93370279Y-61878010D02*
G01*
X93399489Y-61880887D01*
X93399874Y-61880963D01*
X93423231Y-61888048D01*
X93423593Y-61888198D01*
X93445121Y-61899705D01*
X93445447Y-61899923D01*
X93464315Y-61915408D01*
X93464592Y-61915685D01*
X93480077Y-61934553D01*
X93480295Y-61934879D01*
X93489700Y-61952474D01*
X93500426Y-61968526D01*
X93514008Y-61982108D01*
X93529980Y-61992779D01*
X93547726Y-62000130D01*
X93566570Y-62003879D01*
X93585775Y-62003878D01*
X93604619Y-62000130D01*
X93622365Y-61992779D01*
X93638337Y-61982107D01*
X93651919Y-61968525D01*
X93662699Y-61952390D01*
X93664493Y-61951505D01*
X93666156Y-61952616D01*
X93666210Y-61954266D01*
X93629913Y-62041897D01*
X93605130Y-62166488D01*
X93605130Y-62293512D01*
X93629913Y-62418103D01*
X93668090Y-62510271D01*
X93667829Y-62512254D01*
X93665981Y-62513019D01*
X93664478Y-62511979D01*
X93657648Y-62499199D01*
X93645462Y-62484351D01*
X93630613Y-62472164D01*
X93613672Y-62463109D01*
X93595287Y-62457532D01*
X93576173Y-62455649D01*
X93557059Y-62457531D01*
X93538674Y-62463109D01*
X93521732Y-62472163D01*
X93506884Y-62484349D01*
X93494663Y-62499240D01*
X93489729Y-62507472D01*
X93480295Y-62525121D01*
X93480077Y-62525447D01*
X93464592Y-62544315D01*
X93464315Y-62544592D01*
X93445447Y-62560077D01*
X93445121Y-62560295D01*
X93423593Y-62571802D01*
X93423231Y-62571952D01*
X93399874Y-62579037D01*
X93399489Y-62579113D01*
X93370279Y-62581990D01*
X93370083Y-62582000D01*
X93325000Y-62582000D01*
X93323268Y-62581000D01*
X93323268Y-62579000D01*
X93324804Y-62578010D01*
X93358746Y-62574667D01*
X93391201Y-62564822D01*
X93421109Y-62548836D01*
X93447323Y-62527323D01*
X93468836Y-62501109D01*
X93484822Y-62471201D01*
X93494667Y-62438746D01*
X93498000Y-62404906D01*
X93498000Y-62055094D01*
X93494667Y-62021254D01*
X93484822Y-61988799D01*
X93468836Y-61958891D01*
X93447323Y-61932677D01*
X93421109Y-61911164D01*
X93391201Y-61895178D01*
X93358746Y-61885333D01*
X93324804Y-61881990D01*
X93323178Y-61880825D01*
X93323374Y-61878835D01*
X93325000Y-61878000D01*
X93370083Y-61878000D01*
X93370279Y-61878010D01*
G37*
G36*
X100791519Y-36757155D02*
G01*
X100800711Y-36768354D01*
X100815559Y-36780541D01*
X100832500Y-36789596D01*
X100850885Y-36795173D01*
X100869999Y-36797056D01*
X100889113Y-36795174D01*
X100907498Y-36789596D01*
X100924440Y-36780542D01*
X100939288Y-36768355D01*
X100948481Y-36757154D01*
X100950353Y-36756450D01*
X100951899Y-36757719D01*
X100951690Y-36759534D01*
X100942620Y-36773109D01*
X100897760Y-36881411D01*
X100874889Y-36996389D01*
X100874889Y-37113611D01*
X100897760Y-37228589D01*
X100942620Y-37336891D01*
X100951690Y-37350465D01*
X100951821Y-37352461D01*
X100950158Y-37353572D01*
X100948481Y-37352845D01*
X100939289Y-37341646D01*
X100924441Y-37329459D01*
X100907500Y-37320404D01*
X100889115Y-37314827D01*
X100870001Y-37312944D01*
X100850887Y-37314826D01*
X100832502Y-37320404D01*
X100815560Y-37329458D01*
X100800712Y-37341645D01*
X100791519Y-37352846D01*
X100789647Y-37353550D01*
X100788101Y-37352281D01*
X100788310Y-37350466D01*
X100797380Y-37336891D01*
X100842240Y-37228589D01*
X100865111Y-37113611D01*
X100865111Y-36996389D01*
X100842240Y-36881411D01*
X100797380Y-36773109D01*
X100788310Y-36759535D01*
X100788179Y-36757539D01*
X100789842Y-36756428D01*
X100791519Y-36757155D01*
G37*
G36*
X99591519Y-36757155D02*
G01*
X99600711Y-36768354D01*
X99615559Y-36780541D01*
X99632500Y-36789596D01*
X99650885Y-36795173D01*
X99669999Y-36797056D01*
X99689113Y-36795174D01*
X99707498Y-36789596D01*
X99724440Y-36780542D01*
X99739288Y-36768355D01*
X99748481Y-36757154D01*
X99750353Y-36756450D01*
X99751899Y-36757719D01*
X99751690Y-36759534D01*
X99742620Y-36773109D01*
X99697760Y-36881411D01*
X99674889Y-36996389D01*
X99674889Y-37113611D01*
X99697760Y-37228589D01*
X99742620Y-37336891D01*
X99751690Y-37350465D01*
X99751821Y-37352461D01*
X99750158Y-37353572D01*
X99748481Y-37352845D01*
X99739289Y-37341646D01*
X99724441Y-37329459D01*
X99707500Y-37320404D01*
X99689115Y-37314827D01*
X99670001Y-37312944D01*
X99650887Y-37314826D01*
X99632502Y-37320404D01*
X99615560Y-37329458D01*
X99600712Y-37341645D01*
X99591519Y-37352846D01*
X99589647Y-37353550D01*
X99588101Y-37352281D01*
X99588310Y-37350466D01*
X99597380Y-37336891D01*
X99642240Y-37228589D01*
X99665111Y-37113611D01*
X99665111Y-36996389D01*
X99642240Y-36881411D01*
X99597380Y-36773109D01*
X99588310Y-36759535D01*
X99588179Y-36757539D01*
X99589842Y-36756428D01*
X99591519Y-36757155D01*
G37*
G36*
X93370279Y-33938010D02*
G01*
X93399489Y-33940887D01*
X93399874Y-33940963D01*
X93423231Y-33948048D01*
X93423593Y-33948198D01*
X93445121Y-33959705D01*
X93445447Y-33959923D01*
X93464315Y-33975408D01*
X93464592Y-33975685D01*
X93480077Y-33994553D01*
X93480295Y-33994879D01*
X93489700Y-34012474D01*
X93500426Y-34028526D01*
X93514008Y-34042108D01*
X93529980Y-34052779D01*
X93547726Y-34060130D01*
X93566570Y-34063879D01*
X93585775Y-34063878D01*
X93604619Y-34060130D01*
X93622365Y-34052779D01*
X93638337Y-34042107D01*
X93651919Y-34028525D01*
X93662699Y-34012390D01*
X93664493Y-34011505D01*
X93666156Y-34012616D01*
X93666210Y-34014266D01*
X93629913Y-34101897D01*
X93605130Y-34226488D01*
X93605130Y-34353512D01*
X93629913Y-34478103D01*
X93668090Y-34570271D01*
X93667829Y-34572254D01*
X93665981Y-34573019D01*
X93664478Y-34571979D01*
X93657648Y-34559199D01*
X93645462Y-34544351D01*
X93630613Y-34532164D01*
X93613672Y-34523109D01*
X93595287Y-34517532D01*
X93576173Y-34515649D01*
X93557059Y-34517531D01*
X93538674Y-34523109D01*
X93521732Y-34532163D01*
X93506884Y-34544349D01*
X93494663Y-34559240D01*
X93489729Y-34567472D01*
X93480295Y-34585121D01*
X93480077Y-34585447D01*
X93464592Y-34604315D01*
X93464315Y-34604592D01*
X93445447Y-34620077D01*
X93445121Y-34620295D01*
X93423593Y-34631802D01*
X93423231Y-34631952D01*
X93399874Y-34639037D01*
X93399489Y-34639113D01*
X93370279Y-34641990D01*
X93370083Y-34642000D01*
X93325000Y-34642000D01*
X93323268Y-34641000D01*
X93323268Y-34639000D01*
X93324804Y-34638010D01*
X93358746Y-34634667D01*
X93391201Y-34624822D01*
X93421109Y-34608836D01*
X93447323Y-34587323D01*
X93468836Y-34561109D01*
X93484822Y-34531201D01*
X93494667Y-34498746D01*
X93498000Y-34464906D01*
X93498000Y-34115094D01*
X93494667Y-34081254D01*
X93484822Y-34048799D01*
X93468836Y-34018891D01*
X93447323Y-33992677D01*
X93421109Y-33971164D01*
X93391201Y-33955178D01*
X93358746Y-33945333D01*
X93324804Y-33941990D01*
X93323178Y-33940825D01*
X93323374Y-33938835D01*
X93325000Y-33938000D01*
X93370083Y-33938000D01*
X93370279Y-33938010D01*
G37*
M02*
